G04 Layer: TopSilkscreenLayer*
G04 EasyEDA v6.5.5, 2023-03-22 15:04:11*
G04 9b540237bf8445d7845913a8156beade,10*
G04 Gerber Generator version 0.2*
G04 Scale: 100 percent, Rotated: No, Reflected: No *
G04 Dimensions in millimeters *
G04 leading zeros omitted , absolute positions ,4 integer and 5 decimal *
%FSLAX45Y45*%
%MOMM*%

%ADD12C,0.1850*%
%ADD13C,0.1524*%
%ADD14C,0.2032*%

%LPD*%
D13*
X926084Y4382770D02*
G01*
X1009142Y4382770D01*
X1024889Y4377436D01*
X1029970Y4372355D01*
X1035050Y4361942D01*
X1035050Y4351528D01*
X1029970Y4341113D01*
X1024889Y4335779D01*
X1009142Y4330700D01*
X998728Y4330700D01*
X946912Y4417060D02*
G01*
X941578Y4427220D01*
X926084Y4442968D01*
X1035050Y4442968D01*
D14*
X1119065Y3784803D02*
G01*
X1115509Y3792169D01*
X1104587Y3803091D01*
X1181041Y3803091D01*
D13*
X926084Y3112770D02*
G01*
X1009142Y3112770D01*
X1024889Y3107436D01*
X1029970Y3102355D01*
X1035050Y3091942D01*
X1035050Y3081528D01*
X1029970Y3071113D01*
X1024889Y3065779D01*
X1009142Y3060700D01*
X998728Y3060700D01*
X951992Y3152139D02*
G01*
X946912Y3152139D01*
X936497Y3157220D01*
X931163Y3162554D01*
X926084Y3172968D01*
X926084Y3193795D01*
X931163Y3204210D01*
X936497Y3209289D01*
X946912Y3214370D01*
X957326Y3214370D01*
X967739Y3209289D01*
X983234Y3198876D01*
X1035050Y3147060D01*
X1035050Y3219704D01*
D14*
X1119065Y2514803D02*
G01*
X1115509Y2522169D01*
X1104587Y2533091D01*
X1181041Y2533091D01*
D13*
X926084Y1868170D02*
G01*
X1009142Y1868170D01*
X1024889Y1862836D01*
X1029970Y1857755D01*
X1035050Y1847342D01*
X1035050Y1836928D01*
X1029970Y1826513D01*
X1024889Y1821179D01*
X1009142Y1816100D01*
X998728Y1816100D01*
X926084Y1912620D02*
G01*
X926084Y1969770D01*
X967739Y1938781D01*
X967739Y1954276D01*
X972820Y1964689D01*
X977900Y1969770D01*
X993647Y1975104D01*
X1004062Y1975104D01*
X1019555Y1969770D01*
X1029970Y1959610D01*
X1035050Y1943862D01*
X1035050Y1928368D01*
X1029970Y1912620D01*
X1024889Y1907539D01*
X1014476Y1902460D01*
D14*
X1119065Y1270203D02*
G01*
X1115509Y1277569D01*
X1104587Y1288491D01*
X1181041Y1288491D01*
D12*
X1089202Y4893002D02*
G01*
X1347602Y4893002D01*
X1090000Y3872499D02*
G01*
X1089200Y4890500D01*
X1348399Y3872499D02*
G01*
X1349199Y4890500D01*
X1090000Y3872499D02*
G01*
X1348399Y3872499D01*
X1089202Y3623002D02*
G01*
X1347602Y3623002D01*
X1090000Y2602499D02*
G01*
X1089200Y3620500D01*
X1348399Y2602499D02*
G01*
X1349199Y3620500D01*
X1090000Y2602499D02*
G01*
X1348399Y2602499D01*
X1089202Y2378402D02*
G01*
X1347602Y2378402D01*
X1090000Y1357899D02*
G01*
X1089200Y2375900D01*
X1348399Y1357899D02*
G01*
X1349199Y2375900D01*
X1090000Y1357899D02*
G01*
X1348399Y1357899D01*
M02*
