G04 Layer: TopLayer*
G04 EasyEDA v6.5.5, 2023-03-22 15:04:11*
G04 9b540237bf8445d7845913a8156beade,10*
G04 Gerber Generator version 0.2*
G04 Scale: 100 percent, Rotated: No, Reflected: No *
G04 Dimensions in millimeters *
G04 leading zeros omitted , absolute positions ,4 integer and 5 decimal *
%FSLAX45Y45*%
%MOMM*%

%ADD10C,0.2540*%
%ADD11C,1.7000*%

%LPD*%
G36*
X736092Y1125880D02*
G01*
X732180Y1126693D01*
X728878Y1128877D01*
X726694Y1132179D01*
X725932Y1136040D01*
X725932Y5063896D01*
X726694Y5067808D01*
X728878Y5071110D01*
X732180Y5073294D01*
X736092Y5074056D01*
X1663954Y5074056D01*
X1667814Y5073294D01*
X1671116Y5071110D01*
X1673301Y5067808D01*
X1674114Y5063896D01*
X1674114Y1136040D01*
X1673301Y1132179D01*
X1671116Y1128877D01*
X1667814Y1126693D01*
X1663954Y1125880D01*
G37*

%LPC*%
G36*
X1268018Y3138982D02*
G01*
X1279702Y3145586D01*
X1291082Y3154070D01*
X1301292Y3163925D01*
X1310132Y3175050D01*
X1317498Y3187192D01*
X1318564Y3189630D01*
X1268018Y3189630D01*
G37*
G36*
X1212088Y1629257D02*
G01*
X1226312Y1629257D01*
X1240383Y1631035D01*
X1254150Y1634642D01*
X1267307Y1639976D01*
X1279702Y1646986D01*
X1291082Y1655470D01*
X1301292Y1665325D01*
X1310132Y1676450D01*
X1317498Y1688592D01*
X1323238Y1701596D01*
X1327302Y1715211D01*
X1329588Y1729232D01*
X1329994Y1743456D01*
X1328674Y1757578D01*
X1325473Y1771446D01*
X1320596Y1784807D01*
X1313992Y1797405D01*
X1305864Y1809038D01*
X1296314Y1819554D01*
X1285494Y1828749D01*
X1273606Y1836521D01*
X1260805Y1842668D01*
X1247292Y1847138D01*
X1233373Y1849882D01*
X1219200Y1850796D01*
X1205026Y1849882D01*
X1191056Y1847138D01*
X1177594Y1842668D01*
X1164793Y1836521D01*
X1152855Y1828749D01*
X1142034Y1819554D01*
X1132484Y1809038D01*
X1124356Y1797405D01*
X1117803Y1784807D01*
X1112875Y1771446D01*
X1109726Y1757578D01*
X1108354Y1743456D01*
X1108811Y1729232D01*
X1111097Y1715211D01*
X1115110Y1701596D01*
X1120902Y1688592D01*
X1128268Y1676450D01*
X1137107Y1665325D01*
X1147318Y1655470D01*
X1158697Y1646986D01*
X1171092Y1639976D01*
X1184249Y1634642D01*
X1198016Y1631035D01*
G37*
G36*
X1170330Y1894382D02*
G01*
X1170330Y1945030D01*
X1119784Y1945030D01*
X1120902Y1942592D01*
X1128268Y1930450D01*
X1137107Y1919325D01*
X1147318Y1909470D01*
X1158697Y1900986D01*
G37*
G36*
X1268018Y1894382D02*
G01*
X1279702Y1900986D01*
X1291082Y1909470D01*
X1301292Y1919325D01*
X1310132Y1930450D01*
X1317498Y1942592D01*
X1318564Y1945030D01*
X1268018Y1945030D01*
G37*
G36*
X1268018Y2042769D02*
G01*
X1318514Y2042769D01*
X1313992Y2051354D01*
X1305864Y2063038D01*
X1296314Y2073554D01*
X1285494Y2082749D01*
X1273606Y2090521D01*
X1268018Y2093214D01*
G37*
G36*
X1119886Y2042769D02*
G01*
X1170330Y2042769D01*
X1170330Y2093214D01*
X1164793Y2090521D01*
X1152855Y2082749D01*
X1142034Y2073554D01*
X1132484Y2063038D01*
X1124356Y2051354D01*
G37*
G36*
X1212088Y2137206D02*
G01*
X1226312Y2137206D01*
X1240383Y2139035D01*
X1254150Y2142642D01*
X1267307Y2147976D01*
X1279702Y2154936D01*
X1291082Y2163470D01*
X1301292Y2173325D01*
X1310132Y2184450D01*
X1317498Y2196592D01*
X1323238Y2209596D01*
X1327302Y2223211D01*
X1329588Y2237232D01*
X1329994Y2251456D01*
X1328674Y2265578D01*
X1325473Y2279446D01*
X1320596Y2292756D01*
X1313992Y2305354D01*
X1305864Y2317038D01*
X1296314Y2327554D01*
X1285494Y2336749D01*
X1273606Y2344521D01*
X1260805Y2350668D01*
X1247292Y2355138D01*
X1233373Y2357882D01*
X1219200Y2358796D01*
X1205026Y2357882D01*
X1191056Y2355138D01*
X1178610Y2351024D01*
X1174902Y2350516D01*
X1171295Y2351379D01*
X1168247Y2353462D01*
X879805Y2641904D01*
X877569Y2645206D01*
X876808Y2649118D01*
X876808Y3091281D01*
X877569Y3095193D01*
X879805Y3098495D01*
X1168298Y3387039D01*
X1171600Y3389223D01*
X1175461Y3389985D01*
X1179322Y3389274D01*
X1184249Y3387242D01*
X1198016Y3383635D01*
X1212088Y3381806D01*
X1226312Y3381806D01*
X1240383Y3383635D01*
X1254150Y3387242D01*
X1267307Y3392576D01*
X1279702Y3399536D01*
X1291082Y3408070D01*
X1301292Y3417925D01*
X1310132Y3429050D01*
X1317498Y3441192D01*
X1323238Y3454196D01*
X1327302Y3467811D01*
X1329588Y3481832D01*
X1329994Y3496056D01*
X1328674Y3510178D01*
X1325473Y3524046D01*
X1320596Y3537356D01*
X1313992Y3549954D01*
X1305864Y3561638D01*
X1296314Y3572154D01*
X1285494Y3581349D01*
X1273606Y3589121D01*
X1260805Y3595268D01*
X1247292Y3599738D01*
X1233373Y3602482D01*
X1219200Y3603396D01*
X1205026Y3602482D01*
X1191056Y3599738D01*
X1177594Y3595268D01*
X1164793Y3589121D01*
X1152855Y3581349D01*
X1142034Y3572154D01*
X1132484Y3561638D01*
X1124356Y3549954D01*
X1117803Y3537356D01*
X1112875Y3524046D01*
X1109726Y3510178D01*
X1108354Y3496056D01*
X1108811Y3481832D01*
X1111097Y3467811D01*
X1116584Y3448862D01*
X1115872Y3444900D01*
X1113637Y3441547D01*
X894130Y3222040D01*
X890879Y3219856D01*
X886968Y3219094D01*
X883056Y3219856D01*
X879805Y3222040D01*
X877569Y3225342D01*
X876808Y3229254D01*
X876808Y4361281D01*
X877569Y4365193D01*
X879805Y4368495D01*
X1168298Y4657039D01*
X1171600Y4659223D01*
X1175461Y4659985D01*
X1179322Y4659274D01*
X1184249Y4657242D01*
X1198016Y4653635D01*
X1212088Y4651806D01*
X1226312Y4651806D01*
X1240383Y4653635D01*
X1254150Y4657242D01*
X1267307Y4662576D01*
X1279702Y4669536D01*
X1291082Y4678070D01*
X1301292Y4687925D01*
X1310132Y4699050D01*
X1317498Y4711192D01*
X1323238Y4724196D01*
X1327302Y4737811D01*
X1329588Y4751832D01*
X1329994Y4766056D01*
X1328674Y4780178D01*
X1325473Y4794046D01*
X1320596Y4807356D01*
X1313992Y4819954D01*
X1305864Y4831638D01*
X1296314Y4842154D01*
X1285494Y4851349D01*
X1273606Y4859121D01*
X1260805Y4865268D01*
X1247292Y4869738D01*
X1233373Y4872482D01*
X1219200Y4873396D01*
X1205026Y4872482D01*
X1191056Y4869738D01*
X1177594Y4865268D01*
X1164793Y4859121D01*
X1152855Y4851349D01*
X1142034Y4842154D01*
X1132484Y4831638D01*
X1124356Y4819954D01*
X1117803Y4807356D01*
X1112875Y4794046D01*
X1109726Y4780178D01*
X1108354Y4766056D01*
X1108811Y4751832D01*
X1111097Y4737811D01*
X1116584Y4718862D01*
X1115872Y4714900D01*
X1113637Y4711547D01*
X811276Y4409135D01*
X806145Y4402937D01*
X802589Y4396232D01*
X800404Y4389018D01*
X799592Y4380992D01*
X799592Y2629408D01*
X800404Y2621381D01*
X802589Y2614168D01*
X806145Y2607462D01*
X811276Y2601264D01*
X1113739Y2298801D01*
X1115872Y2295601D01*
X1116685Y2291892D01*
X1116076Y2288082D01*
X1112875Y2279446D01*
X1109726Y2265578D01*
X1108354Y2251456D01*
X1108811Y2237232D01*
X1111097Y2223211D01*
X1115110Y2209596D01*
X1120902Y2196592D01*
X1128268Y2184450D01*
X1137107Y2173325D01*
X1147318Y2163470D01*
X1158697Y2154936D01*
X1171092Y2147976D01*
X1184249Y2142642D01*
X1198016Y2139035D01*
G37*
G36*
X1119886Y4557369D02*
G01*
X1170330Y4557369D01*
X1170330Y4607814D01*
X1164793Y4605121D01*
X1152855Y4597349D01*
X1142034Y4588154D01*
X1132484Y4577638D01*
X1124356Y4565954D01*
G37*
G36*
X1212088Y2619857D02*
G01*
X1226312Y2619857D01*
X1240383Y2621635D01*
X1254150Y2625242D01*
X1267307Y2630576D01*
X1279702Y2637586D01*
X1291082Y2646070D01*
X1301292Y2655925D01*
X1310132Y2667050D01*
X1317498Y2679192D01*
X1323238Y2692196D01*
X1327302Y2705811D01*
X1329588Y2719832D01*
X1329994Y2734056D01*
X1328674Y2748178D01*
X1325473Y2762046D01*
X1320596Y2775407D01*
X1313992Y2788005D01*
X1305864Y2799638D01*
X1296314Y2810154D01*
X1285494Y2819349D01*
X1273606Y2827121D01*
X1260805Y2833268D01*
X1247292Y2837738D01*
X1233373Y2840482D01*
X1219200Y2841396D01*
X1205026Y2840482D01*
X1191056Y2837738D01*
X1177594Y2833268D01*
X1164793Y2827121D01*
X1152855Y2819349D01*
X1142034Y2810154D01*
X1132484Y2799638D01*
X1124356Y2788005D01*
X1117803Y2775407D01*
X1112875Y2762046D01*
X1109726Y2748178D01*
X1108354Y2734056D01*
X1108811Y2719832D01*
X1111097Y2705811D01*
X1115110Y2692196D01*
X1120902Y2679192D01*
X1128268Y2667050D01*
X1137107Y2655925D01*
X1147318Y2646070D01*
X1158697Y2637586D01*
X1171092Y2630576D01*
X1184249Y2625242D01*
X1198016Y2621635D01*
G37*
G36*
X1212088Y2873857D02*
G01*
X1226312Y2873857D01*
X1240383Y2875635D01*
X1254150Y2879242D01*
X1267307Y2884576D01*
X1279702Y2891586D01*
X1291082Y2900070D01*
X1301292Y2909925D01*
X1310132Y2921050D01*
X1317498Y2933192D01*
X1323238Y2946196D01*
X1327302Y2959811D01*
X1329588Y2973832D01*
X1329994Y2988056D01*
X1328674Y3002178D01*
X1325473Y3016046D01*
X1320596Y3029407D01*
X1313992Y3042005D01*
X1305864Y3053638D01*
X1296314Y3064154D01*
X1285494Y3073349D01*
X1273606Y3081121D01*
X1260805Y3087268D01*
X1247292Y3091738D01*
X1233373Y3094482D01*
X1219200Y3095396D01*
X1205026Y3094482D01*
X1191056Y3091738D01*
X1177594Y3087268D01*
X1164793Y3081121D01*
X1152855Y3073349D01*
X1142034Y3064154D01*
X1132484Y3053638D01*
X1124356Y3042005D01*
X1117803Y3029407D01*
X1112875Y3016046D01*
X1109726Y3002178D01*
X1108354Y2988056D01*
X1108811Y2973832D01*
X1111097Y2959811D01*
X1115110Y2946196D01*
X1120902Y2933192D01*
X1128268Y2921050D01*
X1137107Y2909925D01*
X1147318Y2900070D01*
X1158697Y2891586D01*
X1171092Y2884576D01*
X1184249Y2879242D01*
X1198016Y2875635D01*
G37*
G36*
X1170330Y3138982D02*
G01*
X1170330Y3189630D01*
X1119784Y3189630D01*
X1120902Y3187192D01*
X1128268Y3175050D01*
X1137107Y3163925D01*
X1147318Y3154070D01*
X1158697Y3145586D01*
G37*
G36*
X1212088Y1375257D02*
G01*
X1226312Y1375257D01*
X1240383Y1377035D01*
X1254150Y1380642D01*
X1267307Y1385976D01*
X1279702Y1392986D01*
X1291082Y1401470D01*
X1301292Y1411325D01*
X1310132Y1422450D01*
X1317498Y1434592D01*
X1323238Y1447596D01*
X1327302Y1461211D01*
X1329588Y1475232D01*
X1329994Y1489456D01*
X1328674Y1503578D01*
X1325473Y1517446D01*
X1320596Y1530807D01*
X1313992Y1543405D01*
X1305864Y1555038D01*
X1296314Y1565554D01*
X1285494Y1574749D01*
X1273606Y1582521D01*
X1260805Y1588668D01*
X1247292Y1593138D01*
X1233373Y1595882D01*
X1219200Y1596796D01*
X1205026Y1595882D01*
X1191056Y1593138D01*
X1177594Y1588668D01*
X1164793Y1582521D01*
X1152855Y1574749D01*
X1142034Y1565554D01*
X1132484Y1555038D01*
X1124356Y1543405D01*
X1117803Y1530807D01*
X1112875Y1517446D01*
X1109726Y1503578D01*
X1108354Y1489456D01*
X1108811Y1475232D01*
X1111097Y1461211D01*
X1115110Y1447596D01*
X1120902Y1434592D01*
X1128268Y1422450D01*
X1137107Y1411325D01*
X1147318Y1401470D01*
X1158697Y1392986D01*
X1171092Y1385976D01*
X1184249Y1380642D01*
X1198016Y1377035D01*
G37*
G36*
X1268018Y4557369D02*
G01*
X1318514Y4557369D01*
X1313992Y4565954D01*
X1305864Y4577638D01*
X1296314Y4588154D01*
X1285494Y4597349D01*
X1273606Y4605121D01*
X1268018Y4607814D01*
G37*
G36*
X1268018Y3287369D02*
G01*
X1318514Y3287369D01*
X1313992Y3295954D01*
X1305864Y3307638D01*
X1296314Y3318154D01*
X1285494Y3327349D01*
X1273606Y3335121D01*
X1268018Y3337814D01*
G37*
G36*
X1119886Y3287369D02*
G01*
X1170330Y3287369D01*
X1170330Y3337814D01*
X1164793Y3335121D01*
X1152855Y3327349D01*
X1142034Y3318154D01*
X1132484Y3307638D01*
X1124356Y3295954D01*
G37*
G36*
X1268018Y4408982D02*
G01*
X1279702Y4415586D01*
X1291082Y4424070D01*
X1301292Y4433925D01*
X1310132Y4445050D01*
X1317498Y4457192D01*
X1318564Y4459630D01*
X1268018Y4459630D01*
G37*
G36*
X1212088Y3889857D02*
G01*
X1226312Y3889857D01*
X1240383Y3891635D01*
X1254150Y3895242D01*
X1267307Y3900576D01*
X1279702Y3907586D01*
X1291082Y3916070D01*
X1301292Y3925925D01*
X1310132Y3937050D01*
X1317498Y3949192D01*
X1323238Y3962196D01*
X1327302Y3975811D01*
X1329588Y3989832D01*
X1329994Y4004056D01*
X1328674Y4018178D01*
X1325473Y4032046D01*
X1320596Y4045407D01*
X1313992Y4058005D01*
X1305864Y4069638D01*
X1296314Y4080154D01*
X1285494Y4089349D01*
X1273606Y4097121D01*
X1260805Y4103268D01*
X1247292Y4107738D01*
X1233373Y4110482D01*
X1219200Y4111396D01*
X1205026Y4110482D01*
X1191056Y4107738D01*
X1177594Y4103268D01*
X1164793Y4097121D01*
X1152855Y4089349D01*
X1142034Y4080154D01*
X1132484Y4069638D01*
X1124356Y4058005D01*
X1117803Y4045407D01*
X1112875Y4032046D01*
X1109726Y4018178D01*
X1108354Y4004056D01*
X1108811Y3989832D01*
X1111097Y3975811D01*
X1115110Y3962196D01*
X1120902Y3949192D01*
X1128268Y3937050D01*
X1137107Y3925925D01*
X1147318Y3916070D01*
X1158697Y3907586D01*
X1171092Y3900576D01*
X1184249Y3895242D01*
X1198016Y3891635D01*
G37*
G36*
X1212088Y4143857D02*
G01*
X1226312Y4143857D01*
X1240383Y4145635D01*
X1254150Y4149242D01*
X1267307Y4154576D01*
X1279702Y4161586D01*
X1291082Y4170070D01*
X1301292Y4179925D01*
X1310132Y4191050D01*
X1317498Y4203192D01*
X1323238Y4216196D01*
X1327302Y4229811D01*
X1329588Y4243832D01*
X1329994Y4258056D01*
X1328674Y4272178D01*
X1325473Y4286046D01*
X1320596Y4299407D01*
X1313992Y4312005D01*
X1305864Y4323638D01*
X1296314Y4334154D01*
X1285494Y4343349D01*
X1273606Y4351121D01*
X1260805Y4357268D01*
X1247292Y4361738D01*
X1233373Y4364482D01*
X1219200Y4365396D01*
X1205026Y4364482D01*
X1191056Y4361738D01*
X1177594Y4357268D01*
X1164793Y4351121D01*
X1152855Y4343349D01*
X1142034Y4334154D01*
X1132484Y4323638D01*
X1124356Y4312005D01*
X1117803Y4299407D01*
X1112875Y4286046D01*
X1109726Y4272178D01*
X1108354Y4258056D01*
X1108811Y4243832D01*
X1111097Y4229811D01*
X1115110Y4216196D01*
X1120902Y4203192D01*
X1128268Y4191050D01*
X1137107Y4179925D01*
X1147318Y4170070D01*
X1158697Y4161586D01*
X1171092Y4154576D01*
X1184249Y4149242D01*
X1198016Y4145635D01*
G37*
G36*
X1170330Y4408982D02*
G01*
X1170330Y4459630D01*
X1119784Y4459630D01*
X1120902Y4457192D01*
X1128268Y4445050D01*
X1137107Y4433925D01*
X1147318Y4424070D01*
X1158697Y4415586D01*
G37*

%LPD*%
D10*
X1219200Y3238500D02*
G01*
X1549400Y2908300D01*
X1549400Y2324100D01*
X1219200Y3492500D02*
G01*
X838200Y3111500D01*
X838200Y2628900D01*
X1219200Y4508500D02*
G01*
X1549400Y4178300D01*
X1549400Y2324100D01*
X1219200Y1993900D01*
X1219200Y4762500D02*
G01*
X838200Y4381500D01*
X838200Y2628900D01*
X1219200Y2247900D01*
D11*
G01*
X1219200Y4508500D03*
G01*
X1219200Y4254500D03*
G01*
X1219200Y4000500D03*
G01*
X1219200Y4762500D03*
G01*
X1219200Y3238500D03*
G01*
X1219200Y2984500D03*
G01*
X1219200Y2730500D03*
G01*
X1219200Y3492500D03*
G01*
X1219200Y1993900D03*
G01*
X1219200Y1739900D03*
G01*
X1219200Y1485900D03*
G01*
X1219200Y2247900D03*
M02*
