M48
METRIC,LZ,000.000
;FILE_FORMAT=3:3
;TYPE=PLATED
;Layer: PTH_Through
;EasyEDA v6.5.5, 2023-03-20 10:36:03
;9b540237bf8445d7845913a8156beade,10
;Gerber Generator version 0.2
;Holesize 1 = 0.801 mm
T01C0.801
;Holesize 2 = 1.016 mm
T02C1.016
;Holesize 3 = 1.021 mm
T03C1.021
%
G05
G90
T01
X010768Y071773G85X010774Y071773
X010768Y069233G85X010774Y069233
X010768Y066693G85X010774Y066693
X010768Y064153G85X010774Y064153
X010768Y061613G85X010774Y061613
X010768Y059073G85X010774Y059073
X010768Y056533G85X010774Y056533
X010768Y053993G85X010774Y053993
X010768Y051453G85X010774Y051453
X010792Y048913G85X010798Y048913
X010792Y046373G85X010798Y046373
X010792Y043833G85X010798Y043833
X010792Y041293G85X010798Y041293
X010792Y038753G85X010798Y038753
X010792Y036213G85X010798Y036213
X039768Y071773G85X039773Y071773
X039768Y069233G85X039773Y069233
X039768Y066693G85X039773Y066693
X039768Y064153G85X039773Y064153
X039768Y061613G85X039773Y061613
X039768Y059073G85X039773Y059073
X039768Y056533G85X039773Y056533
X039768Y053993G85X039773Y053993
X039768Y051453G85X039773Y051453
X039768Y048913G85X039773Y048913
X039768Y046373G85X039773Y046373
X039768Y043833G85X039773Y043833
X039768Y041293G85X039773Y041293
X039768Y038753G85X039773Y038753
X039768Y036213G85X039773Y036213
T02
X045720Y068199
X045720Y065659
X045720Y063119
X045720Y060579
X045720Y058039
X045720Y055499
X045720Y052959
X045720Y050419
X045720Y047879
X045720Y045339
X045720Y042799
X045720Y040259
X063500Y068199
X063500Y065659
X063500Y063119
X063500Y060579
X063500Y058039
X063500Y055499
X063500Y052959
X063500Y050419
X063500Y047879
X063500Y045339
X063500Y042799
X063500Y040259
T03
X018288Y092202
X015748Y092202
X013208Y092202
X020828Y092202
X036449Y092583
X033909Y092583
X031369Y092583
X038989Y092583
X054483Y092075
X057023Y092075
X059563Y092075
X051943Y092075
M30
