G04 Layer: TopLayer*
G04 EasyEDA v6.5.5, 2023-03-20 10:36:03*
G04 9b540237bf8445d7845913a8156beade,10*
G04 Gerber Generator version 0.2*
G04 Scale: 100 percent, Rotated: No, Reflected: No *
G04 Dimensions in millimeters *
G04 leading zeros omitted , absolute positions ,4 integer and 5 decimal *
%FSLAX45Y45*%
%MOMM*%

%ADD10C,0.2540*%
%ADD11C,1.7000*%
%ADD12C,1.9304*%
%ADD13C,1.7780*%

%LPD*%
G36*
X736092Y2225903D02*
G01*
X732180Y2226665D01*
X728878Y2228900D01*
X726694Y2232152D01*
X725932Y2236063D01*
X725932Y10163911D01*
X726694Y10167823D01*
X728878Y10171074D01*
X732180Y10173309D01*
X736092Y10174071D01*
X6663944Y10174071D01*
X6667804Y10173309D01*
X6671106Y10171074D01*
X6673291Y10167823D01*
X6674103Y10163911D01*
X6674103Y2236063D01*
X6673291Y2232152D01*
X6671106Y2228900D01*
X6667804Y2226665D01*
X6663944Y2225903D01*
G37*

%LPC*%
G36*
X6342786Y5943346D02*
G01*
X6357213Y5943346D01*
X6371488Y5945124D01*
X6385458Y5948730D01*
X6398869Y5954014D01*
X6411518Y5960973D01*
X6423152Y5969457D01*
X6433667Y5979312D01*
X6442862Y5990437D01*
X6450584Y6002578D01*
X6456730Y6015634D01*
X6461201Y6029350D01*
X6463893Y6043523D01*
X6464808Y6057900D01*
X6463893Y6072276D01*
X6461201Y6086449D01*
X6456730Y6100165D01*
X6450584Y6113221D01*
X6442862Y6125362D01*
X6433667Y6136487D01*
X6423152Y6146342D01*
X6411518Y6154826D01*
X6398869Y6161786D01*
X6385458Y6167069D01*
X6371488Y6170676D01*
X6357213Y6172454D01*
X6342786Y6172454D01*
X6328511Y6170676D01*
X6314541Y6167069D01*
X6301130Y6161786D01*
X6288481Y6154826D01*
X6276848Y6146342D01*
X6266332Y6136487D01*
X6257137Y6125362D01*
X6249416Y6113221D01*
X6243269Y6100165D01*
X6238798Y6086449D01*
X6236106Y6072276D01*
X6235192Y6057900D01*
X6236106Y6043523D01*
X6238798Y6029350D01*
X6243269Y6015634D01*
X6249416Y6002578D01*
X6257137Y5990437D01*
X6266332Y5979312D01*
X6276848Y5969457D01*
X6288481Y5960973D01*
X6301130Y5954014D01*
X6314541Y5948730D01*
X6328511Y5945124D01*
G37*
G36*
X3831640Y2651455D02*
G01*
X3849674Y2652877D01*
X3867505Y2656128D01*
X3884879Y2661158D01*
X3901643Y2668016D01*
X3917645Y2676499D01*
X3932682Y2686608D01*
X3946550Y2698191D01*
X3959199Y2711196D01*
X3970477Y2725369D01*
X3980179Y2740660D01*
X3988257Y2756865D01*
X3994658Y2773832D01*
X3999280Y2791307D01*
X4002074Y2809189D01*
X4002989Y2827274D01*
X4002074Y2845409D01*
X3999280Y2863291D01*
X3994658Y2880766D01*
X3988257Y2897733D01*
X3980179Y2913938D01*
X3970477Y2929229D01*
X3959199Y2943402D01*
X3946550Y2956407D01*
X3932682Y2967990D01*
X3917645Y2978099D01*
X3901643Y2986582D01*
X3884879Y2993440D01*
X3867505Y2998470D01*
X3849674Y3001721D01*
X3831640Y3003143D01*
X3813505Y3002686D01*
X3795572Y3000349D01*
X3777945Y2996184D01*
X3760825Y2990240D01*
X3744417Y2982569D01*
X3728923Y2973222D01*
X3714394Y2962351D01*
X3701135Y2950057D01*
X3689146Y2936443D01*
X3678682Y2921711D01*
X3669741Y2905963D01*
X3662527Y2889351D01*
X3656990Y2872079D01*
X3653282Y2854350D01*
X3651453Y2836367D01*
X3651453Y2818231D01*
X3653282Y2800248D01*
X3656990Y2782519D01*
X3662527Y2765247D01*
X3669741Y2748635D01*
X3678682Y2732887D01*
X3689146Y2718155D01*
X3701135Y2704541D01*
X3714394Y2692247D01*
X3728923Y2681376D01*
X3744417Y2672029D01*
X3760825Y2664358D01*
X3777945Y2658414D01*
X3795572Y2654249D01*
X3813505Y2651912D01*
G37*
G36*
X3973322Y3498951D02*
G01*
X3988409Y3499408D01*
X4003294Y3501745D01*
X4017772Y3505860D01*
X4031640Y3511702D01*
X4044696Y3519271D01*
X4056735Y3528364D01*
X4067556Y3538829D01*
X4077004Y3550564D01*
X4084929Y3563365D01*
X4091228Y3577082D01*
X4095800Y3591458D01*
X4098594Y3606241D01*
X4099509Y3621278D01*
X4098594Y3636365D01*
X4095800Y3651148D01*
X4091228Y3665524D01*
X4084929Y3679190D01*
X4077004Y3692042D01*
X4067556Y3703777D01*
X4056735Y3714242D01*
X4044696Y3723335D01*
X4031640Y3730853D01*
X4017772Y3736746D01*
X4003294Y3740861D01*
X3988409Y3743198D01*
X3973322Y3743655D01*
X3958336Y3742283D01*
X3943604Y3739032D01*
X3929379Y3734003D01*
X3915867Y3727297D01*
X3903319Y3718966D01*
X3891889Y3709162D01*
X3881729Y3698036D01*
X3873042Y3685743D01*
X3865879Y3672484D01*
X3860444Y3658412D01*
X3856786Y3643782D01*
X3854907Y3628847D01*
X3854907Y3613759D01*
X3856786Y3598824D01*
X3860444Y3584194D01*
X3865879Y3570122D01*
X3873042Y3556863D01*
X3881729Y3544570D01*
X3891889Y3533444D01*
X3903319Y3523589D01*
X3915867Y3515309D01*
X3929379Y3508552D01*
X3943604Y3503574D01*
X3958336Y3500323D01*
G37*
G36*
X1075740Y3498951D02*
G01*
X1090777Y3499408D01*
X1105662Y3501745D01*
X1120190Y3505860D01*
X1134059Y3511702D01*
X1147114Y3519271D01*
X1159154Y3528364D01*
X1169974Y3538829D01*
X1179423Y3550564D01*
X1187348Y3563365D01*
X1193647Y3577082D01*
X1198219Y3591458D01*
X1200962Y3606241D01*
X1201928Y3621278D01*
X1200962Y3636365D01*
X1198219Y3651148D01*
X1193647Y3665524D01*
X1187348Y3679190D01*
X1179423Y3692042D01*
X1169974Y3703777D01*
X1159154Y3714242D01*
X1147114Y3723335D01*
X1134059Y3730853D01*
X1120190Y3736746D01*
X1113942Y3738524D01*
X1110081Y3740607D01*
X1107490Y3744061D01*
X1106576Y3748278D01*
X1107490Y3752545D01*
X1110081Y3755999D01*
X1113942Y3758082D01*
X1120190Y3759860D01*
X1134059Y3765702D01*
X1147114Y3773271D01*
X1159154Y3782364D01*
X1169974Y3792829D01*
X1179423Y3804564D01*
X1187348Y3817365D01*
X1193647Y3831082D01*
X1198219Y3845458D01*
X1200962Y3860241D01*
X1201928Y3875278D01*
X1200962Y3890365D01*
X1198219Y3905148D01*
X1193647Y3919524D01*
X1187348Y3933190D01*
X1179423Y3946042D01*
X1169974Y3957777D01*
X1159154Y3968242D01*
X1147114Y3977335D01*
X1134059Y3984853D01*
X1120190Y3990746D01*
X1113942Y3992524D01*
X1110132Y3994556D01*
X1107490Y3998061D01*
X1106576Y4002278D01*
X1107490Y4006545D01*
X1110132Y4009999D01*
X1113942Y4012082D01*
X1120190Y4013860D01*
X1134059Y4019702D01*
X1147114Y4027271D01*
X1159154Y4036314D01*
X1169974Y4046829D01*
X1179423Y4058564D01*
X1187348Y4071365D01*
X1193647Y4085082D01*
X1198219Y4099458D01*
X1200962Y4114241D01*
X1201928Y4129278D01*
X1200962Y4144314D01*
X1198219Y4159148D01*
X1193647Y4173524D01*
X1187348Y4187190D01*
X1179423Y4200042D01*
X1169974Y4211777D01*
X1159154Y4222242D01*
X1147114Y4231335D01*
X1134059Y4238853D01*
X1120190Y4244746D01*
X1113942Y4246524D01*
X1110081Y4248556D01*
X1107490Y4252061D01*
X1106576Y4256278D01*
X1107490Y4260545D01*
X1110081Y4263999D01*
X1113942Y4266082D01*
X1120190Y4267860D01*
X1134059Y4273702D01*
X1147114Y4281271D01*
X1159154Y4290314D01*
X1169974Y4300829D01*
X1179423Y4312564D01*
X1187348Y4325366D01*
X1193647Y4339082D01*
X1198219Y4353458D01*
X1200962Y4368241D01*
X1201928Y4383278D01*
X1200962Y4398314D01*
X1198219Y4413148D01*
X1193647Y4427524D01*
X1187348Y4441190D01*
X1179423Y4454042D01*
X1169974Y4465777D01*
X1159154Y4476242D01*
X1147114Y4485335D01*
X1134059Y4492853D01*
X1120190Y4498746D01*
X1113942Y4500524D01*
X1110081Y4502556D01*
X1107490Y4506061D01*
X1106576Y4510278D01*
X1107490Y4514545D01*
X1110081Y4517999D01*
X1113942Y4520082D01*
X1120190Y4521860D01*
X1134059Y4527702D01*
X1147114Y4535271D01*
X1159154Y4544314D01*
X1169974Y4554829D01*
X1179423Y4566564D01*
X1187348Y4579366D01*
X1193647Y4593082D01*
X1198219Y4607458D01*
X1200962Y4622241D01*
X1201928Y4637278D01*
X1200962Y4652314D01*
X1198219Y4667148D01*
X1193647Y4681524D01*
X1187348Y4695190D01*
X1179423Y4708042D01*
X1169974Y4719777D01*
X1159154Y4730242D01*
X1147114Y4739335D01*
X1134059Y4746853D01*
X1120190Y4752746D01*
X1113942Y4754524D01*
X1110081Y4756556D01*
X1107490Y4760061D01*
X1106576Y4764278D01*
X1107490Y4768545D01*
X1110081Y4771999D01*
X1113942Y4774082D01*
X1120190Y4775860D01*
X1134059Y4781702D01*
X1147114Y4789271D01*
X1159154Y4798314D01*
X1169974Y4808829D01*
X1179423Y4820564D01*
X1187348Y4833366D01*
X1193647Y4847082D01*
X1198219Y4861458D01*
X1200962Y4876241D01*
X1201928Y4891278D01*
X1200962Y4906314D01*
X1198219Y4921148D01*
X1193647Y4935524D01*
X1187348Y4949190D01*
X1179423Y4962042D01*
X1169974Y4973777D01*
X1159154Y4984242D01*
X1147114Y4993335D01*
X1134059Y5000853D01*
X1120190Y5006746D01*
X1112723Y5008880D01*
X1108913Y5010912D01*
X1106271Y5014366D01*
X1105357Y5018633D01*
X1106271Y5022900D01*
X1108913Y5026355D01*
X1112723Y5028387D01*
X1117803Y5029860D01*
X1131671Y5035702D01*
X1144727Y5043271D01*
X1156716Y5052314D01*
X1167536Y5062829D01*
X1176985Y5074564D01*
X1184960Y5087366D01*
X1191260Y5101082D01*
X1195832Y5115458D01*
X1198575Y5130241D01*
X1199489Y5145278D01*
X1198575Y5160314D01*
X1195832Y5175148D01*
X1191260Y5189524D01*
X1184960Y5203190D01*
X1176985Y5216042D01*
X1167536Y5227777D01*
X1156716Y5238242D01*
X1144727Y5247335D01*
X1131671Y5254853D01*
X1117803Y5260746D01*
X1111554Y5262524D01*
X1107694Y5264556D01*
X1105103Y5268061D01*
X1104138Y5272278D01*
X1105103Y5276545D01*
X1107694Y5279999D01*
X1111554Y5282082D01*
X1117803Y5283860D01*
X1131671Y5289702D01*
X1144727Y5297271D01*
X1156716Y5306314D01*
X1167536Y5316829D01*
X1176985Y5328564D01*
X1184960Y5341366D01*
X1191260Y5355082D01*
X1195832Y5369458D01*
X1198575Y5384241D01*
X1199489Y5399278D01*
X1198575Y5414314D01*
X1195832Y5429148D01*
X1191260Y5443524D01*
X1184960Y5457190D01*
X1176985Y5470042D01*
X1167536Y5481777D01*
X1156716Y5492242D01*
X1144727Y5501335D01*
X1131671Y5508853D01*
X1117803Y5514746D01*
X1111554Y5516524D01*
X1107694Y5518556D01*
X1105103Y5522061D01*
X1104138Y5526278D01*
X1105103Y5530545D01*
X1107694Y5533999D01*
X1111554Y5536082D01*
X1117803Y5537860D01*
X1131671Y5543702D01*
X1144727Y5551271D01*
X1156716Y5560314D01*
X1167536Y5570829D01*
X1176985Y5582564D01*
X1184960Y5595366D01*
X1191260Y5609082D01*
X1195832Y5623458D01*
X1198575Y5638241D01*
X1199489Y5653278D01*
X1198575Y5668314D01*
X1195832Y5683148D01*
X1191260Y5697524D01*
X1184960Y5711190D01*
X1176985Y5724042D01*
X1167536Y5735777D01*
X1156716Y5746242D01*
X1144727Y5755335D01*
X1131671Y5762853D01*
X1117803Y5768746D01*
X1111554Y5770524D01*
X1107694Y5772556D01*
X1105103Y5776061D01*
X1104138Y5780278D01*
X1105103Y5784545D01*
X1107694Y5787999D01*
X1111554Y5790082D01*
X1117803Y5791860D01*
X1131671Y5797702D01*
X1144727Y5805271D01*
X1156716Y5814314D01*
X1167536Y5824829D01*
X1176985Y5836564D01*
X1184960Y5849366D01*
X1191260Y5863082D01*
X1195832Y5877458D01*
X1198575Y5892241D01*
X1199489Y5907278D01*
X1198575Y5922314D01*
X1195832Y5937148D01*
X1191260Y5951524D01*
X1184960Y5965190D01*
X1176985Y5978042D01*
X1167536Y5989777D01*
X1156716Y6000242D01*
X1144727Y6009335D01*
X1131671Y6016853D01*
X1117803Y6022746D01*
X1111554Y6024524D01*
X1107694Y6026556D01*
X1105103Y6030061D01*
X1104138Y6034278D01*
X1105103Y6038545D01*
X1107694Y6041999D01*
X1111554Y6044082D01*
X1117803Y6045860D01*
X1131671Y6051702D01*
X1144727Y6059271D01*
X1156716Y6068314D01*
X1167536Y6078829D01*
X1176985Y6090564D01*
X1184960Y6103366D01*
X1191260Y6117082D01*
X1195832Y6131458D01*
X1198575Y6146241D01*
X1199489Y6161278D01*
X1198575Y6176314D01*
X1195832Y6191148D01*
X1191260Y6205524D01*
X1184960Y6219190D01*
X1176985Y6232042D01*
X1167536Y6243777D01*
X1156716Y6254242D01*
X1144727Y6263335D01*
X1131671Y6270853D01*
X1117803Y6276746D01*
X1111554Y6278524D01*
X1107694Y6280556D01*
X1105103Y6284061D01*
X1104138Y6288278D01*
X1105103Y6292545D01*
X1107694Y6295999D01*
X1111554Y6298082D01*
X1117803Y6299860D01*
X1131671Y6305702D01*
X1144727Y6313271D01*
X1156716Y6322314D01*
X1167536Y6332829D01*
X1176985Y6344564D01*
X1184960Y6357366D01*
X1191260Y6371082D01*
X1195832Y6385458D01*
X1198575Y6400241D01*
X1199489Y6415278D01*
X1198575Y6430314D01*
X1195832Y6445148D01*
X1191260Y6459524D01*
X1184960Y6473190D01*
X1176985Y6486042D01*
X1167536Y6497777D01*
X1156716Y6508242D01*
X1144727Y6517335D01*
X1131671Y6524853D01*
X1117803Y6530746D01*
X1111554Y6532524D01*
X1107694Y6534556D01*
X1105103Y6538061D01*
X1104138Y6542278D01*
X1105103Y6546545D01*
X1107694Y6549999D01*
X1111554Y6552082D01*
X1117803Y6553860D01*
X1131671Y6559702D01*
X1144727Y6567271D01*
X1156716Y6576314D01*
X1167536Y6586829D01*
X1176985Y6598564D01*
X1184960Y6611366D01*
X1191260Y6625081D01*
X1195832Y6639458D01*
X1198575Y6654241D01*
X1199489Y6669278D01*
X1198575Y6684314D01*
X1195832Y6699148D01*
X1191260Y6713524D01*
X1184960Y6727190D01*
X1176985Y6739991D01*
X1167536Y6751777D01*
X1156716Y6762242D01*
X1144727Y6771335D01*
X1131671Y6778853D01*
X1117803Y6784746D01*
X1111554Y6786524D01*
X1107694Y6788556D01*
X1105103Y6792061D01*
X1104138Y6796278D01*
X1105103Y6800545D01*
X1107694Y6803999D01*
X1111554Y6806082D01*
X1117803Y6807860D01*
X1131671Y6813702D01*
X1144727Y6821271D01*
X1156716Y6830314D01*
X1167536Y6840829D01*
X1176985Y6852564D01*
X1184960Y6865366D01*
X1191260Y6879081D01*
X1195832Y6893458D01*
X1198575Y6908241D01*
X1199489Y6923278D01*
X1198575Y6938314D01*
X1195832Y6953148D01*
X1191260Y6967524D01*
X1184960Y6981190D01*
X1176985Y6993991D01*
X1167536Y7005777D01*
X1156716Y7016242D01*
X1144727Y7025335D01*
X1131671Y7032853D01*
X1117803Y7038746D01*
X1111554Y7040524D01*
X1107694Y7042556D01*
X1105103Y7046061D01*
X1104138Y7050278D01*
X1105103Y7054545D01*
X1107694Y7057999D01*
X1111554Y7060082D01*
X1117803Y7061860D01*
X1131671Y7067702D01*
X1144727Y7075271D01*
X1156716Y7084314D01*
X1167536Y7094829D01*
X1176985Y7106564D01*
X1184960Y7119366D01*
X1191260Y7133081D01*
X1195832Y7147458D01*
X1198575Y7162241D01*
X1199489Y7177278D01*
X1198575Y7192314D01*
X1195832Y7207148D01*
X1191260Y7221524D01*
X1184960Y7235190D01*
X1176985Y7247991D01*
X1167536Y7259777D01*
X1156716Y7270242D01*
X1144727Y7279335D01*
X1131671Y7286853D01*
X1117803Y7292746D01*
X1103274Y7296861D01*
X1088390Y7299198D01*
X1073353Y7299655D01*
X1058316Y7298232D01*
X1043584Y7295032D01*
X1029411Y7290003D01*
X1015898Y7283297D01*
X1003350Y7274966D01*
X991869Y7265162D01*
X981710Y7254036D01*
X973023Y7241743D01*
X965911Y7228433D01*
X960475Y7214412D01*
X956767Y7199782D01*
X954938Y7184847D01*
X954938Y7169759D01*
X956767Y7154773D01*
X960475Y7140194D01*
X965911Y7126122D01*
X973023Y7112863D01*
X981710Y7100570D01*
X991869Y7089394D01*
X1003350Y7079589D01*
X1015898Y7071258D01*
X1029411Y7064552D01*
X1042720Y7059879D01*
X1046226Y7057745D01*
X1048613Y7054342D01*
X1049477Y7050278D01*
X1048613Y7046214D01*
X1046226Y7042861D01*
X1042720Y7040727D01*
X1029411Y7036003D01*
X1015898Y7029297D01*
X1003350Y7020966D01*
X991869Y7011162D01*
X981710Y7000036D01*
X973023Y6987743D01*
X965911Y6974433D01*
X960475Y6960412D01*
X956767Y6945782D01*
X954938Y6930847D01*
X954938Y6915759D01*
X956767Y6900773D01*
X960475Y6886194D01*
X965911Y6872122D01*
X973023Y6858863D01*
X981710Y6846570D01*
X991869Y6835394D01*
X1003350Y6825589D01*
X1015898Y6817258D01*
X1029411Y6810552D01*
X1042720Y6805879D01*
X1046226Y6803745D01*
X1048613Y6800342D01*
X1049477Y6796278D01*
X1048613Y6792214D01*
X1046226Y6788861D01*
X1042720Y6786727D01*
X1029411Y6782003D01*
X1015898Y6775297D01*
X1003350Y6766966D01*
X991869Y6757162D01*
X981710Y6746036D01*
X973023Y6733743D01*
X965911Y6720433D01*
X960475Y6706412D01*
X956767Y6691782D01*
X954938Y6676847D01*
X954938Y6661759D01*
X956767Y6646773D01*
X960475Y6632194D01*
X965911Y6618122D01*
X973023Y6604863D01*
X981710Y6592570D01*
X991869Y6581394D01*
X1003350Y6571589D01*
X1015898Y6563258D01*
X1029411Y6556552D01*
X1042669Y6551879D01*
X1046226Y6549745D01*
X1048613Y6546342D01*
X1049477Y6542278D01*
X1048613Y6538214D01*
X1046226Y6534861D01*
X1042669Y6532727D01*
X1029411Y6528003D01*
X1015898Y6521297D01*
X1003350Y6512966D01*
X991869Y6503162D01*
X981710Y6492036D01*
X973023Y6479743D01*
X965911Y6466433D01*
X960475Y6452412D01*
X956767Y6437782D01*
X954938Y6422847D01*
X954938Y6407759D01*
X956767Y6392824D01*
X960475Y6378194D01*
X965911Y6364122D01*
X973023Y6350863D01*
X981710Y6338570D01*
X991869Y6327394D01*
X1003350Y6317589D01*
X1015898Y6309309D01*
X1029411Y6302552D01*
X1042720Y6297879D01*
X1046226Y6295745D01*
X1048613Y6292342D01*
X1049477Y6288278D01*
X1048613Y6284214D01*
X1046226Y6280861D01*
X1042720Y6278727D01*
X1029411Y6274003D01*
X1015898Y6267297D01*
X1003350Y6258966D01*
X991869Y6249162D01*
X981710Y6238036D01*
X973023Y6225743D01*
X965911Y6212433D01*
X960475Y6198412D01*
X956767Y6183782D01*
X954938Y6168847D01*
X954938Y6153759D01*
X956767Y6138824D01*
X960475Y6124194D01*
X965911Y6110122D01*
X973023Y6096863D01*
X981710Y6084570D01*
X991869Y6073394D01*
X1003350Y6063589D01*
X1015898Y6055309D01*
X1029411Y6048552D01*
X1042720Y6043879D01*
X1046226Y6041745D01*
X1048613Y6038342D01*
X1049477Y6034278D01*
X1048613Y6030214D01*
X1046226Y6026861D01*
X1042720Y6024727D01*
X1029411Y6020003D01*
X1015898Y6013297D01*
X1003350Y6004966D01*
X991869Y5995162D01*
X981710Y5984036D01*
X973023Y5971743D01*
X965911Y5958433D01*
X960475Y5944412D01*
X956767Y5929782D01*
X954938Y5914847D01*
X954938Y5899759D01*
X956767Y5884824D01*
X960475Y5870194D01*
X965911Y5856122D01*
X973023Y5842863D01*
X981710Y5830570D01*
X991869Y5819394D01*
X1003350Y5809589D01*
X1015898Y5801309D01*
X1029411Y5794552D01*
X1042720Y5789879D01*
X1046226Y5787745D01*
X1048613Y5784342D01*
X1049477Y5780278D01*
X1048613Y5776214D01*
X1046226Y5772861D01*
X1042720Y5770727D01*
X1029411Y5766003D01*
X1015898Y5759297D01*
X1003350Y5750966D01*
X991869Y5741162D01*
X981710Y5730036D01*
X973023Y5717743D01*
X965911Y5704433D01*
X960475Y5690412D01*
X956767Y5675782D01*
X954938Y5660847D01*
X954938Y5645759D01*
X956767Y5630824D01*
X960475Y5616194D01*
X965911Y5602122D01*
X973023Y5588863D01*
X981710Y5576570D01*
X991869Y5565394D01*
X1003350Y5555589D01*
X1015898Y5547309D01*
X1029411Y5540552D01*
X1042720Y5535879D01*
X1046226Y5533745D01*
X1048613Y5530342D01*
X1049477Y5526278D01*
X1048613Y5522214D01*
X1046226Y5518861D01*
X1042720Y5516727D01*
X1029411Y5512003D01*
X1015898Y5505297D01*
X1003350Y5496966D01*
X991869Y5487162D01*
X981710Y5476036D01*
X973023Y5463743D01*
X965911Y5450433D01*
X960475Y5436412D01*
X956767Y5421782D01*
X954938Y5406847D01*
X954938Y5391759D01*
X956767Y5376824D01*
X960475Y5362194D01*
X965911Y5348122D01*
X973023Y5334863D01*
X981710Y5322570D01*
X991869Y5311394D01*
X1003350Y5301589D01*
X1015898Y5293309D01*
X1029411Y5286552D01*
X1042669Y5281879D01*
X1046226Y5279745D01*
X1048613Y5276342D01*
X1049477Y5272278D01*
X1048613Y5268214D01*
X1046226Y5264861D01*
X1042669Y5262727D01*
X1029411Y5258003D01*
X1015898Y5251297D01*
X1003350Y5242966D01*
X991869Y5233162D01*
X981710Y5222036D01*
X973023Y5209743D01*
X965911Y5196433D01*
X960475Y5182412D01*
X956767Y5167782D01*
X954938Y5152847D01*
X954938Y5137759D01*
X956767Y5122824D01*
X960475Y5108194D01*
X965911Y5094122D01*
X973023Y5080863D01*
X981710Y5068570D01*
X991869Y5057394D01*
X1003350Y5047589D01*
X1015898Y5039309D01*
X1029411Y5032552D01*
X1043889Y5027472D01*
X1047445Y5025288D01*
X1049832Y5021935D01*
X1050696Y5017871D01*
X1049832Y5013807D01*
X1047445Y5010454D01*
X1043889Y5008270D01*
X1031798Y5004003D01*
X1018286Y4997297D01*
X1005738Y4988966D01*
X994308Y4979162D01*
X984148Y4968036D01*
X975410Y4955743D01*
X968298Y4942433D01*
X962863Y4928412D01*
X959154Y4913782D01*
X957326Y4898847D01*
X957326Y4883759D01*
X959154Y4868824D01*
X962863Y4854194D01*
X968298Y4840122D01*
X975410Y4826863D01*
X984148Y4814570D01*
X994308Y4803394D01*
X1005738Y4793589D01*
X1018286Y4785309D01*
X1031798Y4778552D01*
X1045108Y4773879D01*
X1048664Y4771745D01*
X1051052Y4768342D01*
X1051864Y4764278D01*
X1051052Y4760264D01*
X1048664Y4756861D01*
X1045108Y4754727D01*
X1031798Y4750003D01*
X1018286Y4743297D01*
X1005738Y4734966D01*
X994308Y4725162D01*
X984148Y4714036D01*
X975410Y4701743D01*
X968298Y4688433D01*
X962863Y4674412D01*
X959154Y4659782D01*
X957326Y4644847D01*
X957326Y4629759D01*
X959154Y4614824D01*
X962863Y4600194D01*
X968298Y4586122D01*
X975410Y4572863D01*
X984148Y4560570D01*
X994308Y4549394D01*
X1005738Y4539589D01*
X1018286Y4531309D01*
X1031798Y4524552D01*
X1045108Y4519879D01*
X1048664Y4517745D01*
X1051052Y4514342D01*
X1051864Y4510278D01*
X1051052Y4506264D01*
X1048664Y4502861D01*
X1045108Y4500727D01*
X1031798Y4496003D01*
X1018286Y4489297D01*
X1005738Y4480966D01*
X994308Y4471162D01*
X984148Y4460036D01*
X975410Y4447743D01*
X968298Y4434433D01*
X962863Y4420412D01*
X959154Y4405782D01*
X957326Y4390847D01*
X957326Y4375759D01*
X959154Y4360824D01*
X962863Y4346194D01*
X968298Y4332122D01*
X975410Y4318863D01*
X984148Y4306570D01*
X994308Y4295394D01*
X1005738Y4285589D01*
X1018286Y4277309D01*
X1031798Y4270552D01*
X1045108Y4265879D01*
X1048664Y4263745D01*
X1051052Y4260342D01*
X1051864Y4256278D01*
X1051052Y4252264D01*
X1048664Y4248861D01*
X1045108Y4246727D01*
X1031798Y4242003D01*
X1018286Y4235297D01*
X1005738Y4226966D01*
X994308Y4217162D01*
X984148Y4206036D01*
X975410Y4193743D01*
X968298Y4180433D01*
X962863Y4166412D01*
X959154Y4151782D01*
X957326Y4136847D01*
X957326Y4121759D01*
X959154Y4106824D01*
X962863Y4092194D01*
X968298Y4078122D01*
X975410Y4064863D01*
X984148Y4052570D01*
X994308Y4041394D01*
X1005738Y4031589D01*
X1018286Y4023309D01*
X1031798Y4016552D01*
X1045108Y4011879D01*
X1048664Y4009745D01*
X1051052Y4006342D01*
X1051864Y4002278D01*
X1051052Y3998264D01*
X1048664Y3994861D01*
X1045108Y3992727D01*
X1031798Y3988003D01*
X1018286Y3981297D01*
X1005738Y3972966D01*
X994308Y3963162D01*
X984148Y3952036D01*
X975410Y3939743D01*
X968298Y3926484D01*
X962863Y3912412D01*
X959154Y3897782D01*
X957326Y3882847D01*
X957326Y3867759D01*
X959154Y3852824D01*
X962863Y3838194D01*
X968298Y3824122D01*
X975410Y3810863D01*
X984148Y3798570D01*
X994308Y3787444D01*
X1005738Y3777589D01*
X1018286Y3769309D01*
X1031798Y3762552D01*
X1045108Y3757879D01*
X1048664Y3755745D01*
X1051052Y3752342D01*
X1051864Y3748278D01*
X1051052Y3744264D01*
X1048664Y3740861D01*
X1045108Y3738727D01*
X1031798Y3734003D01*
X1018286Y3727297D01*
X1005738Y3718966D01*
X994308Y3709162D01*
X984148Y3698036D01*
X975410Y3685743D01*
X968298Y3672484D01*
X962863Y3658412D01*
X959154Y3643782D01*
X957326Y3628847D01*
X957326Y3613759D01*
X959154Y3598824D01*
X962863Y3584194D01*
X968298Y3570122D01*
X975410Y3556863D01*
X984148Y3544570D01*
X994308Y3533444D01*
X1005738Y3523589D01*
X1018286Y3515309D01*
X1031798Y3508552D01*
X1046022Y3503574D01*
X1060704Y3500323D01*
G37*
G36*
X4031691Y3765753D02*
G01*
X4044696Y3773271D01*
X4056735Y3782364D01*
X4067556Y3792829D01*
X4077004Y3804564D01*
X4084929Y3817365D01*
X4086453Y3820668D01*
X4031691Y3820668D01*
G37*
G36*
X3922471Y3766007D02*
G01*
X3922471Y3820668D01*
X3867759Y3820668D01*
X3873042Y3810863D01*
X3881729Y3798570D01*
X3891889Y3787444D01*
X3903319Y3777589D01*
X3915867Y3769309D01*
G37*
G36*
X6342786Y3911346D02*
G01*
X6357213Y3911346D01*
X6371488Y3913124D01*
X6385458Y3916730D01*
X6398869Y3922014D01*
X6411518Y3928973D01*
X6423152Y3937457D01*
X6433667Y3947312D01*
X6442862Y3958437D01*
X6450584Y3970578D01*
X6456730Y3983634D01*
X6461201Y3997350D01*
X6463893Y4011523D01*
X6464808Y4025900D01*
X6463893Y4040276D01*
X6461201Y4054449D01*
X6456730Y4068165D01*
X6450584Y4081221D01*
X6442862Y4093362D01*
X6433667Y4104487D01*
X6423152Y4114342D01*
X6411518Y4122826D01*
X6398869Y4129786D01*
X6385458Y4135069D01*
X6371488Y4138676D01*
X6357213Y4140454D01*
X6342786Y4140454D01*
X6328511Y4138676D01*
X6314541Y4135069D01*
X6307074Y4132122D01*
X6303213Y4131411D01*
X6299352Y4132173D01*
X6296152Y4134358D01*
X5743905Y4686604D01*
X5741670Y4689906D01*
X5740908Y4693818D01*
X5740908Y9096959D01*
X5741670Y9100769D01*
X5743752Y9104020D01*
X5746953Y9106255D01*
X5753608Y9109202D01*
X5765749Y9116568D01*
X5776874Y9125407D01*
X5786729Y9135618D01*
X5795213Y9146997D01*
X5802223Y9159392D01*
X5807557Y9172549D01*
X5811164Y9186316D01*
X5812942Y9200388D01*
X5812942Y9214612D01*
X5811164Y9228683D01*
X5807557Y9242450D01*
X5802223Y9255607D01*
X5795213Y9268002D01*
X5786729Y9279382D01*
X5776874Y9289592D01*
X5765749Y9298432D01*
X5753608Y9305798D01*
X5740603Y9311538D01*
X5726988Y9315602D01*
X5712968Y9317888D01*
X5698744Y9318294D01*
X5684621Y9316974D01*
X5670753Y9313773D01*
X5657392Y9308896D01*
X5644794Y9302292D01*
X5633161Y9294164D01*
X5622645Y9284614D01*
X5613450Y9273794D01*
X5605678Y9261906D01*
X5599531Y9249105D01*
X5595061Y9235592D01*
X5592318Y9221673D01*
X5591403Y9207500D01*
X5592318Y9193326D01*
X5595061Y9179356D01*
X5599531Y9165894D01*
X5605678Y9153093D01*
X5613450Y9141155D01*
X5622645Y9130334D01*
X5633161Y9120784D01*
X5644794Y9112656D01*
X5658205Y9105696D01*
X5661101Y9103461D01*
X5663031Y9100312D01*
X5663692Y9096705D01*
X5663692Y4674108D01*
X5664504Y4666081D01*
X5666689Y4658868D01*
X5670245Y4652162D01*
X5675376Y4645964D01*
X6241389Y4079900D01*
X6243624Y4076496D01*
X6244336Y4072432D01*
X6243269Y4068165D01*
X6238798Y4054449D01*
X6236106Y4040276D01*
X6235192Y4025900D01*
X6236106Y4011523D01*
X6238798Y3997350D01*
X6243269Y3983634D01*
X6249416Y3970578D01*
X6257137Y3958437D01*
X6266332Y3947312D01*
X6276848Y3937457D01*
X6288481Y3928973D01*
X6301130Y3922014D01*
X6314541Y3916730D01*
X6328511Y3913124D01*
G37*
G36*
X4564786Y3911346D02*
G01*
X4579213Y3911346D01*
X4593488Y3913124D01*
X4607458Y3916730D01*
X4620869Y3922014D01*
X4633518Y3928973D01*
X4645152Y3937457D01*
X4655667Y3947312D01*
X4664862Y3958437D01*
X4672584Y3970578D01*
X4678730Y3983634D01*
X4683201Y3997350D01*
X4685893Y4011523D01*
X4686808Y4025900D01*
X4685893Y4040276D01*
X4683201Y4054449D01*
X4678629Y4068419D01*
X4677664Y4072432D01*
X4678375Y4076496D01*
X4680610Y4079900D01*
X5284724Y4684064D01*
X5289854Y4690262D01*
X5293410Y4696968D01*
X5295595Y4704181D01*
X5296408Y4712208D01*
X5296408Y8127492D01*
X5295595Y8135518D01*
X5293410Y8142731D01*
X5289854Y8149437D01*
X5284724Y8155635D01*
X4155135Y9285224D01*
X4148937Y9290354D01*
X4142232Y9293910D01*
X4135018Y9296095D01*
X4126992Y9296908D01*
X4009491Y9296908D01*
X4005783Y9297619D01*
X4002582Y9299600D01*
X4000347Y9302648D01*
X3995521Y9312706D01*
X3987749Y9324644D01*
X3978554Y9335465D01*
X3968038Y9345015D01*
X3956354Y9353143D01*
X3943756Y9359696D01*
X3930446Y9364624D01*
X3916578Y9367774D01*
X3902456Y9369145D01*
X3888232Y9368688D01*
X3874211Y9366402D01*
X3860596Y9362389D01*
X3847592Y9356598D01*
X3835450Y9349232D01*
X3824325Y9340392D01*
X3814470Y9330182D01*
X3805936Y9318802D01*
X3798976Y9306407D01*
X3793642Y9293250D01*
X3790035Y9279483D01*
X3788206Y9265412D01*
X3788206Y9251188D01*
X3790035Y9237116D01*
X3793642Y9223349D01*
X3798976Y9210192D01*
X3805936Y9197797D01*
X3814470Y9186418D01*
X3824325Y9176207D01*
X3835450Y9167368D01*
X3847592Y9160002D01*
X3860596Y9154261D01*
X3874211Y9150197D01*
X3888232Y9147911D01*
X3902456Y9147505D01*
X3916578Y9148826D01*
X3930446Y9152026D01*
X3943756Y9156903D01*
X3956354Y9163507D01*
X3968038Y9171635D01*
X3978554Y9181185D01*
X3987749Y9192006D01*
X3995521Y9203893D01*
X4000347Y9213951D01*
X4002582Y9216999D01*
X4005783Y9218980D01*
X4009491Y9219692D01*
X4107281Y9219692D01*
X4111193Y9218930D01*
X4114495Y9216694D01*
X5216194Y8114995D01*
X5218430Y8111693D01*
X5219192Y8107781D01*
X5219192Y4731918D01*
X5218430Y4728006D01*
X5216194Y4724704D01*
X4625848Y4134358D01*
X4622647Y4132173D01*
X4618786Y4131411D01*
X4614926Y4132122D01*
X4607458Y4135069D01*
X4593488Y4138676D01*
X4579213Y4140454D01*
X4564786Y4140454D01*
X4550511Y4138676D01*
X4536541Y4135069D01*
X4523130Y4129786D01*
X4510481Y4122826D01*
X4498848Y4114342D01*
X4488332Y4104487D01*
X4479137Y4093362D01*
X4471416Y4081221D01*
X4465269Y4068165D01*
X4460798Y4054449D01*
X4458106Y4040276D01*
X4457192Y4025900D01*
X4458106Y4011523D01*
X4460798Y3997350D01*
X4465269Y3983634D01*
X4471416Y3970578D01*
X4479137Y3958437D01*
X4488332Y3947312D01*
X4498848Y3937457D01*
X4510481Y3928973D01*
X4523130Y3922014D01*
X4536541Y3916730D01*
X4550511Y3913124D01*
G37*
G36*
X3867759Y3929887D02*
G01*
X3922471Y3929887D01*
X3922471Y3984599D01*
X3915867Y3981297D01*
X3903319Y3972966D01*
X3891889Y3963162D01*
X3881729Y3952036D01*
X3873042Y3939743D01*
G37*
G36*
X4031691Y3929887D02*
G01*
X4086453Y3929887D01*
X4084929Y3933190D01*
X4077004Y3946042D01*
X4067556Y3957777D01*
X4056735Y3968242D01*
X4044696Y3977335D01*
X4031691Y3984853D01*
G37*
G36*
X3973322Y4006951D02*
G01*
X3988409Y4007408D01*
X4003294Y4009745D01*
X4017772Y4013860D01*
X4031640Y4019702D01*
X4044696Y4027271D01*
X4056735Y4036314D01*
X4067556Y4046829D01*
X4077004Y4058564D01*
X4084929Y4071365D01*
X4091228Y4085082D01*
X4095800Y4099458D01*
X4098594Y4114241D01*
X4099509Y4129278D01*
X4098594Y4144314D01*
X4095800Y4159148D01*
X4091228Y4173524D01*
X4084929Y4187190D01*
X4077004Y4200042D01*
X4067556Y4211777D01*
X4056735Y4222242D01*
X4044696Y4231335D01*
X4031640Y4238853D01*
X4017772Y4244746D01*
X4011523Y4246524D01*
X4007713Y4248556D01*
X4005072Y4252061D01*
X4004157Y4256278D01*
X4005072Y4260545D01*
X4007713Y4263999D01*
X4011523Y4266082D01*
X4017772Y4267860D01*
X4031640Y4273702D01*
X4044696Y4281271D01*
X4056735Y4290314D01*
X4067556Y4300829D01*
X4077004Y4312564D01*
X4084929Y4325366D01*
X4091228Y4339082D01*
X4095800Y4353458D01*
X4098594Y4368241D01*
X4099509Y4383278D01*
X4098594Y4398314D01*
X4095800Y4413148D01*
X4091228Y4427524D01*
X4084929Y4441190D01*
X4077004Y4454042D01*
X4067556Y4465777D01*
X4056735Y4476242D01*
X4044696Y4485335D01*
X4031640Y4492853D01*
X4017772Y4498746D01*
X4011523Y4500524D01*
X4007713Y4502556D01*
X4005072Y4506061D01*
X4004157Y4510278D01*
X4005072Y4514545D01*
X4007713Y4517999D01*
X4011523Y4520082D01*
X4017772Y4521860D01*
X4031640Y4527702D01*
X4044696Y4535271D01*
X4056735Y4544314D01*
X4067556Y4554829D01*
X4077004Y4566564D01*
X4084929Y4579366D01*
X4091228Y4593082D01*
X4095800Y4607458D01*
X4098594Y4622241D01*
X4099509Y4637278D01*
X4098594Y4652314D01*
X4095800Y4667148D01*
X4091228Y4681524D01*
X4084929Y4695190D01*
X4077004Y4708042D01*
X4067556Y4719777D01*
X4056735Y4730242D01*
X4044696Y4739335D01*
X4031640Y4746853D01*
X4017772Y4752746D01*
X4011523Y4754524D01*
X4007713Y4756556D01*
X4005072Y4760061D01*
X4004157Y4764278D01*
X4005072Y4768545D01*
X4007713Y4771999D01*
X4011523Y4774082D01*
X4017772Y4775860D01*
X4031640Y4781702D01*
X4044696Y4789271D01*
X4056735Y4798314D01*
X4067556Y4808829D01*
X4077004Y4820564D01*
X4084929Y4833366D01*
X4091228Y4847082D01*
X4095800Y4861458D01*
X4098594Y4876241D01*
X4099509Y4891278D01*
X4098594Y4906314D01*
X4095800Y4921148D01*
X4091228Y4935524D01*
X4084929Y4949190D01*
X4077004Y4962042D01*
X4067556Y4973777D01*
X4056735Y4984242D01*
X4044696Y4993335D01*
X4031640Y5000853D01*
X4017772Y5006746D01*
X4011523Y5008524D01*
X4007713Y5010556D01*
X4005072Y5014061D01*
X4004157Y5018278D01*
X4005072Y5022545D01*
X4007713Y5025999D01*
X4011523Y5028082D01*
X4017772Y5029860D01*
X4031640Y5035702D01*
X4044696Y5043271D01*
X4056735Y5052314D01*
X4067556Y5062829D01*
X4077004Y5074564D01*
X4084929Y5087366D01*
X4091228Y5101082D01*
X4095800Y5115458D01*
X4098594Y5130241D01*
X4099509Y5145278D01*
X4098594Y5160314D01*
X4095800Y5175148D01*
X4091228Y5189524D01*
X4084929Y5203190D01*
X4077004Y5216042D01*
X4067556Y5227777D01*
X4056735Y5238242D01*
X4044696Y5247335D01*
X4031640Y5254853D01*
X4017772Y5260746D01*
X4011523Y5262524D01*
X4007713Y5264556D01*
X4005072Y5268061D01*
X4004157Y5272278D01*
X4005072Y5276545D01*
X4007713Y5279999D01*
X4011523Y5282082D01*
X4017772Y5283860D01*
X4031640Y5289702D01*
X4044696Y5297271D01*
X4056735Y5306314D01*
X4067556Y5316829D01*
X4077004Y5328564D01*
X4084929Y5341366D01*
X4091228Y5355082D01*
X4095800Y5369458D01*
X4098594Y5384241D01*
X4099509Y5399278D01*
X4098594Y5414314D01*
X4095800Y5429148D01*
X4091228Y5443524D01*
X4084929Y5457190D01*
X4077004Y5470042D01*
X4067556Y5481777D01*
X4056735Y5492242D01*
X4044696Y5501335D01*
X4031640Y5508853D01*
X4017772Y5514746D01*
X4011523Y5516524D01*
X4007713Y5518556D01*
X4005072Y5522061D01*
X4004157Y5526278D01*
X4005072Y5530545D01*
X4007713Y5533999D01*
X4011523Y5536082D01*
X4017772Y5537860D01*
X4031640Y5543702D01*
X4044696Y5551271D01*
X4056735Y5560314D01*
X4067556Y5570829D01*
X4077004Y5582564D01*
X4084929Y5595366D01*
X4091228Y5609082D01*
X4095800Y5623458D01*
X4098594Y5638241D01*
X4099509Y5653278D01*
X4098594Y5668314D01*
X4095800Y5683148D01*
X4091228Y5697524D01*
X4084929Y5711190D01*
X4077004Y5724042D01*
X4067556Y5735777D01*
X4056735Y5746242D01*
X4044696Y5755335D01*
X4031640Y5762853D01*
X4017772Y5768746D01*
X4011523Y5770524D01*
X4007713Y5772556D01*
X4005072Y5776061D01*
X4004157Y5780278D01*
X4005072Y5784545D01*
X4007713Y5787999D01*
X4011523Y5790082D01*
X4017772Y5791860D01*
X4031640Y5797702D01*
X4044696Y5805271D01*
X4056735Y5814314D01*
X4067556Y5824829D01*
X4077004Y5836564D01*
X4084929Y5849366D01*
X4091228Y5863082D01*
X4095800Y5877458D01*
X4098594Y5892241D01*
X4099509Y5907278D01*
X4098594Y5922314D01*
X4095800Y5937148D01*
X4091228Y5951524D01*
X4084929Y5965190D01*
X4077004Y5978042D01*
X4067556Y5989777D01*
X4056735Y6000242D01*
X4044696Y6009335D01*
X4031640Y6016853D01*
X4017772Y6022746D01*
X4011523Y6024524D01*
X4007713Y6026556D01*
X4005072Y6030061D01*
X4004157Y6034278D01*
X4005072Y6038545D01*
X4007713Y6041999D01*
X4011523Y6044082D01*
X4017772Y6045860D01*
X4031640Y6051702D01*
X4044696Y6059271D01*
X4056735Y6068314D01*
X4067556Y6078829D01*
X4077004Y6090564D01*
X4084929Y6103366D01*
X4091228Y6117082D01*
X4095800Y6131458D01*
X4098594Y6146241D01*
X4099509Y6161278D01*
X4098594Y6176314D01*
X4095800Y6191148D01*
X4091228Y6205524D01*
X4084929Y6219190D01*
X4077004Y6232042D01*
X4067556Y6243777D01*
X4056735Y6254242D01*
X4044696Y6263335D01*
X4031640Y6270853D01*
X4017772Y6276746D01*
X4011523Y6278524D01*
X4007713Y6280556D01*
X4005072Y6284061D01*
X4004157Y6288278D01*
X4005072Y6292545D01*
X4007713Y6295999D01*
X4011523Y6298082D01*
X4017772Y6299860D01*
X4031640Y6305702D01*
X4044696Y6313271D01*
X4056735Y6322314D01*
X4067556Y6332829D01*
X4077004Y6344564D01*
X4084929Y6357366D01*
X4091228Y6371082D01*
X4095800Y6385458D01*
X4098594Y6400241D01*
X4099509Y6415278D01*
X4098594Y6430314D01*
X4095800Y6445148D01*
X4091228Y6459524D01*
X4084929Y6473190D01*
X4077004Y6486042D01*
X4067556Y6497777D01*
X4056735Y6508242D01*
X4044696Y6517335D01*
X4031640Y6524853D01*
X4017772Y6530746D01*
X4011523Y6532524D01*
X4007713Y6534556D01*
X4005072Y6538061D01*
X4004157Y6542278D01*
X4005072Y6546545D01*
X4007713Y6549999D01*
X4011523Y6552082D01*
X4017772Y6553860D01*
X4031640Y6559702D01*
X4044696Y6567271D01*
X4056735Y6576314D01*
X4067556Y6586829D01*
X4077004Y6598564D01*
X4084929Y6611366D01*
X4091228Y6625081D01*
X4095800Y6639458D01*
X4098594Y6654241D01*
X4099509Y6669278D01*
X4098594Y6684314D01*
X4095800Y6699148D01*
X4091228Y6713524D01*
X4084929Y6727190D01*
X4077004Y6739991D01*
X4074515Y6744614D01*
X4074363Y6748983D01*
X4076090Y6752996D01*
X4079341Y6755942D01*
X4083507Y6757212D01*
X4087876Y6756603D01*
X4091533Y6754266D01*
X4174794Y6671005D01*
X4177029Y6667703D01*
X4177792Y6663791D01*
X4177792Y6414008D01*
X4178604Y6405981D01*
X4180789Y6398768D01*
X4184345Y6392062D01*
X4189476Y6385864D01*
X4463389Y6111900D01*
X4465624Y6108496D01*
X4466336Y6104432D01*
X4465269Y6100165D01*
X4460798Y6086449D01*
X4458106Y6072276D01*
X4457192Y6057900D01*
X4458106Y6043523D01*
X4460798Y6029350D01*
X4465269Y6015634D01*
X4471416Y6002578D01*
X4479137Y5990437D01*
X4488332Y5979312D01*
X4498848Y5969457D01*
X4510481Y5960973D01*
X4523130Y5954014D01*
X4536541Y5948730D01*
X4550511Y5945124D01*
X4564786Y5943346D01*
X4579213Y5943346D01*
X4593488Y5945124D01*
X4607458Y5948730D01*
X4620869Y5954014D01*
X4633518Y5960973D01*
X4645152Y5969457D01*
X4655667Y5979312D01*
X4664862Y5990437D01*
X4672584Y6002578D01*
X4678730Y6015634D01*
X4683201Y6029350D01*
X4685893Y6043523D01*
X4686808Y6057900D01*
X4685893Y6072276D01*
X4683201Y6086449D01*
X4678730Y6100165D01*
X4672584Y6113221D01*
X4664862Y6125362D01*
X4655667Y6136487D01*
X4645152Y6146342D01*
X4633518Y6154826D01*
X4620869Y6161786D01*
X4607458Y6167069D01*
X4593488Y6170676D01*
X4579213Y6172454D01*
X4564786Y6172454D01*
X4550511Y6170676D01*
X4536541Y6167069D01*
X4529074Y6164122D01*
X4525213Y6163411D01*
X4521352Y6164173D01*
X4518152Y6166358D01*
X4258005Y6426504D01*
X4255770Y6429806D01*
X4255008Y6433718D01*
X4255008Y6683502D01*
X4254195Y6691528D01*
X4252010Y6698742D01*
X4248454Y6705447D01*
X4243324Y6711645D01*
X4091432Y6863588D01*
X4089146Y6866991D01*
X4088434Y6871055D01*
X4089349Y6875018D01*
X4091228Y6879081D01*
X4095800Y6893458D01*
X4098594Y6908241D01*
X4099509Y6923278D01*
X4098594Y6938314D01*
X4095800Y6953148D01*
X4091228Y6967524D01*
X4084929Y6981190D01*
X4077004Y6993991D01*
X4067556Y7005777D01*
X4056735Y7016242D01*
X4044696Y7025335D01*
X4031640Y7032853D01*
X4017772Y7038746D01*
X4011523Y7040524D01*
X4007713Y7042556D01*
X4005072Y7046061D01*
X4004157Y7050278D01*
X4005072Y7054545D01*
X4007713Y7057999D01*
X4011523Y7060082D01*
X4017772Y7061860D01*
X4031640Y7067702D01*
X4044696Y7075271D01*
X4056735Y7084314D01*
X4067556Y7094829D01*
X4077004Y7106564D01*
X4084929Y7119366D01*
X4091228Y7133081D01*
X4095800Y7147458D01*
X4098594Y7162241D01*
X4099509Y7177278D01*
X4098594Y7192314D01*
X4095800Y7207148D01*
X4091228Y7221524D01*
X4084929Y7235190D01*
X4077004Y7247991D01*
X4067556Y7259777D01*
X4056735Y7270242D01*
X4044696Y7279335D01*
X4031640Y7286853D01*
X4017772Y7292746D01*
X4003294Y7296861D01*
X3988409Y7299198D01*
X3973322Y7299655D01*
X3958336Y7298232D01*
X3943604Y7295032D01*
X3929379Y7290003D01*
X3915867Y7283297D01*
X3903319Y7274966D01*
X3891889Y7265162D01*
X3881729Y7254036D01*
X3873042Y7241743D01*
X3865879Y7228433D01*
X3860444Y7214412D01*
X3856786Y7199782D01*
X3854907Y7184847D01*
X3854907Y7169759D01*
X3856786Y7154773D01*
X3860444Y7140194D01*
X3865879Y7126122D01*
X3873042Y7112863D01*
X3881729Y7100570D01*
X3891889Y7089394D01*
X3903319Y7079589D01*
X3915867Y7071258D01*
X3929379Y7064552D01*
X3942689Y7059879D01*
X3946245Y7057745D01*
X3948633Y7054342D01*
X3949496Y7050278D01*
X3948633Y7046214D01*
X3946245Y7042861D01*
X3942689Y7040727D01*
X3929379Y7036003D01*
X3915867Y7029297D01*
X3903319Y7020966D01*
X3891889Y7011162D01*
X3881729Y7000036D01*
X3873042Y6987743D01*
X3865879Y6974433D01*
X3860444Y6960412D01*
X3856786Y6945782D01*
X3854907Y6930847D01*
X3854907Y6915759D01*
X3856786Y6900773D01*
X3860444Y6886194D01*
X3865879Y6872122D01*
X3873042Y6858863D01*
X3881729Y6846570D01*
X3891889Y6835394D01*
X3903319Y6825589D01*
X3915867Y6817258D01*
X3929379Y6810552D01*
X3942689Y6805879D01*
X3946245Y6803745D01*
X3948633Y6800342D01*
X3949496Y6796278D01*
X3948633Y6792214D01*
X3946245Y6788861D01*
X3942689Y6786727D01*
X3929379Y6782003D01*
X3915867Y6775297D01*
X3903319Y6766966D01*
X3891889Y6757162D01*
X3881729Y6746036D01*
X3873042Y6733743D01*
X3865879Y6720433D01*
X3860444Y6706412D01*
X3856786Y6691782D01*
X3854907Y6676847D01*
X3854907Y6661759D01*
X3856786Y6646773D01*
X3860444Y6632194D01*
X3865879Y6618122D01*
X3873042Y6604863D01*
X3881729Y6592570D01*
X3891889Y6581394D01*
X3903319Y6571589D01*
X3915867Y6563258D01*
X3929379Y6556552D01*
X3942689Y6551879D01*
X3946245Y6549745D01*
X3948633Y6546342D01*
X3949496Y6542278D01*
X3948633Y6538214D01*
X3946245Y6534861D01*
X3942689Y6532727D01*
X3929379Y6528003D01*
X3915867Y6521297D01*
X3903319Y6512966D01*
X3891889Y6503162D01*
X3881729Y6492036D01*
X3873042Y6479743D01*
X3865879Y6466433D01*
X3860444Y6452412D01*
X3856786Y6437782D01*
X3854907Y6422847D01*
X3854907Y6407759D01*
X3856786Y6392824D01*
X3860444Y6378194D01*
X3865879Y6364122D01*
X3873042Y6350863D01*
X3881729Y6338570D01*
X3891889Y6327394D01*
X3903319Y6317589D01*
X3915867Y6309309D01*
X3929379Y6302552D01*
X3942689Y6297879D01*
X3946245Y6295745D01*
X3948633Y6292342D01*
X3949496Y6288278D01*
X3948633Y6284214D01*
X3946245Y6280861D01*
X3942689Y6278727D01*
X3929379Y6274003D01*
X3915867Y6267297D01*
X3903319Y6258966D01*
X3891889Y6249162D01*
X3881729Y6238036D01*
X3873042Y6225743D01*
X3865879Y6212433D01*
X3860444Y6198412D01*
X3856786Y6183782D01*
X3854907Y6168847D01*
X3854907Y6153759D01*
X3856786Y6138824D01*
X3860444Y6124194D01*
X3865879Y6110122D01*
X3873042Y6096863D01*
X3881729Y6084570D01*
X3891889Y6073394D01*
X3903319Y6063589D01*
X3915867Y6055309D01*
X3929379Y6048552D01*
X3942689Y6043879D01*
X3946245Y6041745D01*
X3948633Y6038342D01*
X3949496Y6034278D01*
X3948633Y6030214D01*
X3946245Y6026861D01*
X3942689Y6024727D01*
X3929379Y6020003D01*
X3915867Y6013297D01*
X3903319Y6004966D01*
X3891889Y5995162D01*
X3881729Y5984036D01*
X3873042Y5971743D01*
X3865879Y5958433D01*
X3860444Y5944412D01*
X3856786Y5929782D01*
X3854907Y5914847D01*
X3854907Y5899759D01*
X3856786Y5884824D01*
X3860444Y5870194D01*
X3865879Y5856122D01*
X3873042Y5842863D01*
X3881729Y5830570D01*
X3891889Y5819394D01*
X3903319Y5809589D01*
X3915867Y5801309D01*
X3929379Y5794552D01*
X3942689Y5789879D01*
X3946245Y5787745D01*
X3948633Y5784342D01*
X3949496Y5780278D01*
X3948633Y5776214D01*
X3946245Y5772861D01*
X3942689Y5770727D01*
X3929379Y5766003D01*
X3915867Y5759297D01*
X3903319Y5750966D01*
X3891889Y5741162D01*
X3881729Y5730036D01*
X3873042Y5717743D01*
X3865879Y5704433D01*
X3860444Y5690412D01*
X3856786Y5675782D01*
X3854907Y5660847D01*
X3854907Y5645759D01*
X3856786Y5630824D01*
X3860444Y5616194D01*
X3865879Y5602122D01*
X3873042Y5588863D01*
X3881729Y5576570D01*
X3891889Y5565394D01*
X3903319Y5555589D01*
X3915867Y5547309D01*
X3929379Y5540552D01*
X3942689Y5535879D01*
X3946245Y5533745D01*
X3948633Y5530342D01*
X3949496Y5526278D01*
X3948633Y5522214D01*
X3946245Y5518861D01*
X3942689Y5516727D01*
X3929379Y5512003D01*
X3915867Y5505297D01*
X3903319Y5496966D01*
X3891889Y5487162D01*
X3881729Y5476036D01*
X3873042Y5463743D01*
X3865879Y5450433D01*
X3860444Y5436412D01*
X3856786Y5421782D01*
X3854907Y5406847D01*
X3854907Y5391759D01*
X3856786Y5376824D01*
X3860444Y5362194D01*
X3865879Y5348122D01*
X3873042Y5334863D01*
X3881729Y5322570D01*
X3891889Y5311394D01*
X3903319Y5301589D01*
X3915867Y5293309D01*
X3929379Y5286552D01*
X3942689Y5281879D01*
X3946245Y5279745D01*
X3948633Y5276342D01*
X3949496Y5272278D01*
X3948633Y5268214D01*
X3946245Y5264861D01*
X3942689Y5262727D01*
X3929379Y5258003D01*
X3915867Y5251297D01*
X3903319Y5242966D01*
X3891889Y5233162D01*
X3881729Y5222036D01*
X3873042Y5209743D01*
X3865879Y5196433D01*
X3860444Y5182412D01*
X3856786Y5167782D01*
X3854907Y5152847D01*
X3854907Y5137759D01*
X3856786Y5122824D01*
X3860444Y5108194D01*
X3865879Y5094122D01*
X3873042Y5080863D01*
X3881729Y5068570D01*
X3891889Y5057394D01*
X3903319Y5047589D01*
X3915867Y5039309D01*
X3929379Y5032552D01*
X3942689Y5027879D01*
X3946245Y5025745D01*
X3948633Y5022342D01*
X3949496Y5018278D01*
X3948633Y5014264D01*
X3946245Y5010861D01*
X3942689Y5008727D01*
X3929379Y5004003D01*
X3915867Y4997297D01*
X3903319Y4988966D01*
X3891889Y4979162D01*
X3881729Y4968036D01*
X3873042Y4955743D01*
X3865879Y4942433D01*
X3860444Y4928412D01*
X3856786Y4913782D01*
X3854907Y4898847D01*
X3854907Y4883759D01*
X3856786Y4868824D01*
X3860444Y4854194D01*
X3865879Y4840122D01*
X3873042Y4826863D01*
X3881729Y4814570D01*
X3891889Y4803394D01*
X3903319Y4793589D01*
X3915867Y4785309D01*
X3929379Y4778552D01*
X3942689Y4773879D01*
X3946245Y4771745D01*
X3948633Y4768342D01*
X3949496Y4764278D01*
X3948633Y4760264D01*
X3946245Y4756861D01*
X3942689Y4754727D01*
X3929379Y4750003D01*
X3915867Y4743297D01*
X3903319Y4734966D01*
X3891889Y4725162D01*
X3881729Y4714036D01*
X3873042Y4701743D01*
X3865879Y4688433D01*
X3860444Y4674412D01*
X3856786Y4659782D01*
X3854907Y4644847D01*
X3854907Y4629759D01*
X3856786Y4614824D01*
X3860444Y4600194D01*
X3865879Y4586122D01*
X3873042Y4572863D01*
X3881729Y4560570D01*
X3891889Y4549394D01*
X3903319Y4539589D01*
X3915867Y4531309D01*
X3929379Y4524552D01*
X3942689Y4519879D01*
X3946245Y4517745D01*
X3948633Y4514342D01*
X3949496Y4510278D01*
X3948633Y4506264D01*
X3946245Y4502861D01*
X3942689Y4500727D01*
X3929379Y4496003D01*
X3915867Y4489297D01*
X3903319Y4480966D01*
X3891889Y4471162D01*
X3881729Y4460036D01*
X3873042Y4447743D01*
X3865879Y4434433D01*
X3860444Y4420412D01*
X3856786Y4405782D01*
X3854907Y4390847D01*
X3854907Y4375759D01*
X3856786Y4360824D01*
X3860444Y4346194D01*
X3865879Y4332122D01*
X3873042Y4318863D01*
X3881729Y4306570D01*
X3891889Y4295394D01*
X3903319Y4285589D01*
X3915867Y4277309D01*
X3929379Y4270552D01*
X3942689Y4265879D01*
X3946245Y4263745D01*
X3948633Y4260342D01*
X3949496Y4256278D01*
X3948633Y4252264D01*
X3946245Y4248861D01*
X3942689Y4246727D01*
X3929379Y4242003D01*
X3915867Y4235297D01*
X3903319Y4226966D01*
X3891889Y4217162D01*
X3881729Y4206036D01*
X3873042Y4193743D01*
X3865879Y4180433D01*
X3860444Y4166412D01*
X3856786Y4151782D01*
X3854907Y4136847D01*
X3854907Y4121759D01*
X3856786Y4106824D01*
X3860444Y4092194D01*
X3865879Y4078122D01*
X3873042Y4064863D01*
X3881729Y4052570D01*
X3891889Y4041394D01*
X3903319Y4031589D01*
X3915867Y4023309D01*
X3929379Y4016552D01*
X3943604Y4011574D01*
X3958336Y4008323D01*
G37*
G36*
X3291433Y9307169D02*
G01*
X3342030Y9307169D01*
X3342030Y9357715D01*
X3339592Y9356598D01*
X3327450Y9349232D01*
X3316325Y9340392D01*
X3306470Y9330182D01*
X3297986Y9318802D01*
G37*
G36*
X3439769Y9307169D02*
G01*
X3490214Y9307169D01*
X3487521Y9312706D01*
X3479749Y9324644D01*
X3470554Y9335465D01*
X3460038Y9345015D01*
X3448405Y9353143D01*
X3439769Y9357614D01*
G37*
G36*
X6342786Y4165346D02*
G01*
X6357213Y4165346D01*
X6371488Y4167124D01*
X6385458Y4170730D01*
X6398869Y4176014D01*
X6411518Y4182973D01*
X6423152Y4191457D01*
X6433667Y4201312D01*
X6442862Y4212437D01*
X6450584Y4224578D01*
X6456730Y4237634D01*
X6461201Y4251350D01*
X6463893Y4265523D01*
X6464808Y4279900D01*
X6463893Y4294276D01*
X6461201Y4308449D01*
X6456730Y4322165D01*
X6450584Y4335221D01*
X6442862Y4347362D01*
X6433667Y4358487D01*
X6423152Y4368342D01*
X6411518Y4376826D01*
X6398869Y4383786D01*
X6385458Y4389069D01*
X6371488Y4392676D01*
X6357213Y4394454D01*
X6342786Y4394454D01*
X6328511Y4392676D01*
X6314541Y4389069D01*
X6307074Y4386122D01*
X6303213Y4385411D01*
X6299352Y4386173D01*
X6296152Y4388358D01*
X5997905Y4686604D01*
X5995670Y4689906D01*
X5994908Y4693818D01*
X5994908Y9096959D01*
X5995670Y9100769D01*
X5997752Y9104020D01*
X6000953Y9106255D01*
X6007608Y9109202D01*
X6019749Y9116568D01*
X6030874Y9125407D01*
X6040729Y9135618D01*
X6049213Y9146997D01*
X6056223Y9159392D01*
X6061557Y9172549D01*
X6065164Y9186316D01*
X6066942Y9200388D01*
X6066942Y9214612D01*
X6065164Y9228683D01*
X6061557Y9242450D01*
X6056223Y9255607D01*
X6049213Y9268002D01*
X6040729Y9279382D01*
X6030874Y9289592D01*
X6019749Y9298432D01*
X6007608Y9305798D01*
X5994603Y9311538D01*
X5980988Y9315602D01*
X5966968Y9317888D01*
X5952744Y9318294D01*
X5938621Y9316974D01*
X5924753Y9313773D01*
X5911392Y9308896D01*
X5898794Y9302292D01*
X5887161Y9294164D01*
X5876645Y9284614D01*
X5867450Y9273794D01*
X5859678Y9261906D01*
X5853531Y9249105D01*
X5849061Y9235592D01*
X5846318Y9221673D01*
X5845403Y9207500D01*
X5846318Y9193326D01*
X5849061Y9179356D01*
X5853531Y9165894D01*
X5859678Y9153093D01*
X5867450Y9141155D01*
X5876645Y9130334D01*
X5887161Y9120784D01*
X5898794Y9112656D01*
X5912205Y9105696D01*
X5915101Y9103461D01*
X5917031Y9100312D01*
X5917692Y9096705D01*
X5917692Y4674108D01*
X5918504Y4666081D01*
X5920689Y4658868D01*
X5924245Y4652162D01*
X5929376Y4645964D01*
X6241389Y4333900D01*
X6243624Y4330496D01*
X6244336Y4326432D01*
X6243269Y4322165D01*
X6238798Y4308449D01*
X6236106Y4294276D01*
X6235192Y4279900D01*
X6236106Y4265523D01*
X6238798Y4251350D01*
X6243269Y4237634D01*
X6249416Y4224578D01*
X6257137Y4212437D01*
X6266332Y4201312D01*
X6276848Y4191457D01*
X6288481Y4182973D01*
X6301130Y4176014D01*
X6314541Y4170730D01*
X6328511Y4167124D01*
G37*
G36*
X4564786Y4165346D02*
G01*
X4579213Y4165346D01*
X4593488Y4167124D01*
X4607458Y4170730D01*
X4620869Y4176014D01*
X4633518Y4182973D01*
X4645152Y4191457D01*
X4655667Y4201312D01*
X4664862Y4212437D01*
X4672584Y4224578D01*
X4678730Y4237634D01*
X4683201Y4251350D01*
X4685893Y4265523D01*
X4686808Y4279900D01*
X4685893Y4294276D01*
X4683201Y4308449D01*
X4678629Y4322419D01*
X4677664Y4326432D01*
X4678375Y4330496D01*
X4680610Y4333900D01*
X5119624Y4772964D01*
X5124754Y4779162D01*
X5128310Y4785868D01*
X5130495Y4793081D01*
X5131308Y4801108D01*
X5131308Y8102092D01*
X5130495Y8110118D01*
X5128310Y8117331D01*
X5124754Y8124037D01*
X5119624Y8130235D01*
X4307535Y8942324D01*
X4301337Y8947454D01*
X4294632Y8951010D01*
X4287418Y8953195D01*
X4279392Y8954008D01*
X3817518Y8954008D01*
X3813606Y8954770D01*
X3810304Y8957005D01*
X3686505Y9080804D01*
X3684270Y9084106D01*
X3683508Y9088018D01*
X3683508Y9147505D01*
X3684168Y9151112D01*
X3686098Y9154261D01*
X3688994Y9156547D01*
X3702405Y9163507D01*
X3714038Y9171635D01*
X3724554Y9181185D01*
X3733749Y9192006D01*
X3741521Y9203893D01*
X3747668Y9216694D01*
X3752138Y9230207D01*
X3754882Y9244126D01*
X3755796Y9258300D01*
X3754882Y9272473D01*
X3752138Y9286443D01*
X3747668Y9299905D01*
X3741521Y9312706D01*
X3733749Y9324644D01*
X3724554Y9335465D01*
X3714038Y9345015D01*
X3702354Y9353143D01*
X3689756Y9359696D01*
X3676446Y9364624D01*
X3662578Y9367774D01*
X3648456Y9369145D01*
X3634232Y9368688D01*
X3620211Y9366402D01*
X3606596Y9362389D01*
X3593592Y9356598D01*
X3581450Y9349232D01*
X3570325Y9340392D01*
X3560470Y9330182D01*
X3551986Y9318802D01*
X3544976Y9306407D01*
X3539642Y9293250D01*
X3536035Y9279483D01*
X3534257Y9265412D01*
X3534257Y9251188D01*
X3536035Y9237116D01*
X3539642Y9223349D01*
X3544976Y9210192D01*
X3551986Y9197797D01*
X3560470Y9186418D01*
X3570325Y9176207D01*
X3581450Y9167368D01*
X3593592Y9160002D01*
X3600246Y9157055D01*
X3603447Y9154820D01*
X3605529Y9151569D01*
X3606292Y9147759D01*
X3606292Y9068308D01*
X3607104Y9060281D01*
X3609289Y9053068D01*
X3612845Y9046362D01*
X3617976Y9040164D01*
X3769664Y8888476D01*
X3775862Y8883345D01*
X3782568Y8879789D01*
X3789781Y8877604D01*
X3797808Y8876792D01*
X4259681Y8876792D01*
X4263593Y8876030D01*
X4266895Y8873794D01*
X5051094Y8089595D01*
X5053330Y8086293D01*
X5054092Y8082381D01*
X5054092Y4820818D01*
X5053330Y4816906D01*
X5051094Y4813604D01*
X4625848Y4388358D01*
X4622647Y4386173D01*
X4618786Y4385411D01*
X4614926Y4386122D01*
X4607458Y4389069D01*
X4593488Y4392676D01*
X4579213Y4394454D01*
X4564786Y4394454D01*
X4550511Y4392676D01*
X4536541Y4389069D01*
X4523130Y4383786D01*
X4510481Y4376826D01*
X4498848Y4368342D01*
X4488332Y4358487D01*
X4479137Y4347362D01*
X4471416Y4335221D01*
X4465269Y4322165D01*
X4460798Y4308449D01*
X4458106Y4294276D01*
X4457192Y4279900D01*
X4458106Y4265523D01*
X4460798Y4251350D01*
X4465269Y4237634D01*
X4471416Y4224578D01*
X4479137Y4212437D01*
X4488332Y4201312D01*
X4498848Y4191457D01*
X4510481Y4182973D01*
X4523130Y4176014D01*
X4536541Y4170730D01*
X4550511Y4167124D01*
G37*
G36*
X1475333Y9269069D02*
G01*
X1525930Y9269069D01*
X1525930Y9319615D01*
X1523492Y9318498D01*
X1511350Y9311132D01*
X1500225Y9302292D01*
X1490370Y9292082D01*
X1481886Y9280702D01*
G37*
G36*
X1623669Y9269069D02*
G01*
X1674114Y9269069D01*
X1671421Y9274606D01*
X1663649Y9286544D01*
X1654454Y9297365D01*
X1643938Y9306915D01*
X1632305Y9315043D01*
X1623669Y9319514D01*
G37*
G36*
X6342786Y4419346D02*
G01*
X6357213Y4419346D01*
X6371488Y4421124D01*
X6385458Y4424730D01*
X6398869Y4430014D01*
X6411518Y4436973D01*
X6423152Y4445457D01*
X6433667Y4455312D01*
X6442862Y4466437D01*
X6450584Y4478578D01*
X6456730Y4491634D01*
X6461201Y4505350D01*
X6463893Y4519523D01*
X6464808Y4533900D01*
X6463893Y4548276D01*
X6461201Y4562449D01*
X6456730Y4576165D01*
X6450584Y4589221D01*
X6442862Y4601362D01*
X6433667Y4612487D01*
X6423152Y4622342D01*
X6411518Y4630826D01*
X6398869Y4637786D01*
X6385458Y4643069D01*
X6371488Y4646676D01*
X6357213Y4648454D01*
X6342786Y4648454D01*
X6328511Y4646676D01*
X6314541Y4643069D01*
X6301130Y4637786D01*
X6288481Y4630826D01*
X6276848Y4622342D01*
X6266332Y4612487D01*
X6257137Y4601362D01*
X6249416Y4589221D01*
X6243269Y4576165D01*
X6238798Y4562449D01*
X6236106Y4548276D01*
X6235192Y4533900D01*
X6236106Y4519523D01*
X6238798Y4505350D01*
X6243269Y4491634D01*
X6249416Y4478578D01*
X6257137Y4466437D01*
X6266332Y4455312D01*
X6276848Y4445457D01*
X6288481Y4436973D01*
X6301130Y4430014D01*
X6314541Y4424730D01*
X6328511Y4421124D01*
G37*
G36*
X4564786Y4419346D02*
G01*
X4579213Y4419346D01*
X4593488Y4421124D01*
X4607458Y4424730D01*
X4620869Y4430014D01*
X4633518Y4436973D01*
X4645152Y4445457D01*
X4655667Y4455312D01*
X4664862Y4466437D01*
X4672584Y4478578D01*
X4678730Y4491634D01*
X4683201Y4505350D01*
X4685893Y4519523D01*
X4686808Y4533900D01*
X4685893Y4548276D01*
X4683201Y4562449D01*
X4678629Y4576419D01*
X4677664Y4580432D01*
X4678375Y4584496D01*
X4680610Y4587900D01*
X4979924Y4887264D01*
X4985054Y4893462D01*
X4988610Y4900168D01*
X4990795Y4907381D01*
X4991608Y4915408D01*
X4991608Y8063992D01*
X4990795Y8072018D01*
X4988610Y8079231D01*
X4985054Y8085937D01*
X4979924Y8092135D01*
X4256735Y8815324D01*
X4250537Y8820454D01*
X4243832Y8824010D01*
X4236618Y8826195D01*
X4228592Y8827008D01*
X2255418Y8827008D01*
X2251506Y8827770D01*
X2248204Y8830005D01*
X2124405Y8953804D01*
X2122170Y8957106D01*
X2121408Y8961018D01*
X2121408Y9109405D01*
X2122068Y9113012D01*
X2123998Y9116161D01*
X2126894Y9118447D01*
X2140305Y9125407D01*
X2151938Y9133535D01*
X2162454Y9143085D01*
X2171649Y9153906D01*
X2179421Y9165793D01*
X2185568Y9178594D01*
X2190038Y9192107D01*
X2192782Y9206026D01*
X2193696Y9220200D01*
X2192782Y9234373D01*
X2190038Y9248343D01*
X2185568Y9261805D01*
X2179421Y9274606D01*
X2171649Y9286544D01*
X2162454Y9297365D01*
X2151938Y9306915D01*
X2140254Y9315043D01*
X2127656Y9321596D01*
X2114346Y9326524D01*
X2100478Y9329674D01*
X2086356Y9331045D01*
X2072132Y9330588D01*
X2058111Y9328302D01*
X2044496Y9324289D01*
X2031492Y9318498D01*
X2019350Y9311132D01*
X2008225Y9302292D01*
X1998370Y9292082D01*
X1989836Y9280702D01*
X1982876Y9268307D01*
X1977542Y9255150D01*
X1973935Y9241383D01*
X1972106Y9227312D01*
X1972106Y9213088D01*
X1973935Y9199016D01*
X1977542Y9185249D01*
X1982876Y9172092D01*
X1989836Y9159697D01*
X1998370Y9148318D01*
X2008225Y9138107D01*
X2019350Y9129268D01*
X2031492Y9121902D01*
X2038146Y9118955D01*
X2041347Y9116720D01*
X2043430Y9113469D01*
X2044192Y9109659D01*
X2044192Y8941308D01*
X2045004Y8933281D01*
X2047189Y8926068D01*
X2050745Y8919362D01*
X2055875Y8913164D01*
X2207564Y8761476D01*
X2213762Y8756345D01*
X2220468Y8752789D01*
X2227681Y8750604D01*
X2235708Y8749792D01*
X4208881Y8749792D01*
X4212793Y8749030D01*
X4216095Y8746794D01*
X4911394Y8051495D01*
X4913630Y8048193D01*
X4914392Y8044281D01*
X4914392Y4935118D01*
X4913630Y4931206D01*
X4911394Y4927904D01*
X4625848Y4642358D01*
X4622647Y4640173D01*
X4618786Y4639411D01*
X4614926Y4640122D01*
X4607458Y4643069D01*
X4593488Y4646676D01*
X4579213Y4648454D01*
X4564786Y4648454D01*
X4550511Y4646676D01*
X4536541Y4643069D01*
X4523130Y4637786D01*
X4510481Y4630826D01*
X4498848Y4622342D01*
X4488332Y4612487D01*
X4479137Y4601362D01*
X4471416Y4589221D01*
X4465269Y4576165D01*
X4460798Y4562449D01*
X4458106Y4548276D01*
X4457192Y4533900D01*
X4458106Y4519523D01*
X4460798Y4505350D01*
X4465269Y4491634D01*
X4471416Y4478578D01*
X4479137Y4466437D01*
X4488332Y4455312D01*
X4498848Y4445457D01*
X4510481Y4436973D01*
X4523130Y4430014D01*
X4536541Y4424730D01*
X4550511Y4421124D01*
G37*
G36*
X5497169Y9256318D02*
G01*
X5547817Y9256318D01*
X5541213Y9268002D01*
X5532729Y9279382D01*
X5522874Y9289592D01*
X5511749Y9298432D01*
X5499608Y9305798D01*
X5497169Y9306864D01*
G37*
G36*
X6342786Y4673346D02*
G01*
X6357213Y4673346D01*
X6371488Y4675124D01*
X6385458Y4678730D01*
X6398869Y4684014D01*
X6411518Y4690973D01*
X6423152Y4699457D01*
X6433667Y4709312D01*
X6442862Y4720437D01*
X6450584Y4732578D01*
X6456730Y4745634D01*
X6461201Y4759350D01*
X6463893Y4773523D01*
X6464808Y4787900D01*
X6463893Y4802276D01*
X6461201Y4816449D01*
X6456730Y4830165D01*
X6450584Y4843221D01*
X6442862Y4855362D01*
X6433667Y4866487D01*
X6423152Y4876342D01*
X6411518Y4884826D01*
X6398869Y4891786D01*
X6385458Y4897069D01*
X6371488Y4900676D01*
X6357213Y4902454D01*
X6342786Y4902454D01*
X6328511Y4900676D01*
X6314541Y4897069D01*
X6301130Y4891786D01*
X6288481Y4884826D01*
X6276848Y4876342D01*
X6266332Y4866487D01*
X6257137Y4855362D01*
X6249416Y4843221D01*
X6243269Y4830165D01*
X6238798Y4816449D01*
X6236106Y4802276D01*
X6235192Y4787900D01*
X6236106Y4773523D01*
X6238798Y4759350D01*
X6243269Y4745634D01*
X6249416Y4732578D01*
X6257137Y4720437D01*
X6266332Y4709312D01*
X6276848Y4699457D01*
X6288481Y4690973D01*
X6301130Y4684014D01*
X6314541Y4678730D01*
X6328511Y4675124D01*
G37*
G36*
X4564786Y4673346D02*
G01*
X4579213Y4673346D01*
X4593488Y4675124D01*
X4607458Y4678730D01*
X4620869Y4684014D01*
X4633518Y4690973D01*
X4645152Y4699457D01*
X4655667Y4709312D01*
X4664862Y4720437D01*
X4672584Y4732578D01*
X4678730Y4745634D01*
X4683201Y4759350D01*
X4685893Y4773523D01*
X4686808Y4787900D01*
X4685893Y4802276D01*
X4683201Y4816449D01*
X4678629Y4830419D01*
X4677664Y4834432D01*
X4678375Y4838496D01*
X4680610Y4841900D01*
X4814824Y4976164D01*
X4819954Y4982362D01*
X4823510Y4989068D01*
X4825695Y4996281D01*
X4826508Y5004308D01*
X4826508Y8089392D01*
X4825695Y8097418D01*
X4823510Y8104631D01*
X4819954Y8111337D01*
X4814824Y8117535D01*
X4244035Y8688324D01*
X4237837Y8693454D01*
X4231132Y8697010D01*
X4223918Y8699195D01*
X4215892Y8700008D01*
X2064918Y8700008D01*
X2061006Y8700770D01*
X2057704Y8703005D01*
X1870405Y8890304D01*
X1868170Y8893606D01*
X1867407Y8897518D01*
X1867407Y9109405D01*
X1868068Y9113012D01*
X1869998Y9116161D01*
X1872894Y9118447D01*
X1886305Y9125407D01*
X1897938Y9133535D01*
X1908454Y9143085D01*
X1917649Y9153906D01*
X1925421Y9165793D01*
X1931568Y9178594D01*
X1936038Y9192107D01*
X1938782Y9206026D01*
X1939696Y9220200D01*
X1938782Y9234373D01*
X1936038Y9248343D01*
X1931568Y9261805D01*
X1925421Y9274606D01*
X1917649Y9286544D01*
X1908454Y9297365D01*
X1897938Y9306915D01*
X1886254Y9315043D01*
X1873656Y9321596D01*
X1860346Y9326524D01*
X1846478Y9329674D01*
X1832356Y9331045D01*
X1818132Y9330588D01*
X1804111Y9328302D01*
X1790496Y9324289D01*
X1777492Y9318498D01*
X1765350Y9311132D01*
X1754225Y9302292D01*
X1744370Y9292082D01*
X1735886Y9280702D01*
X1728876Y9268307D01*
X1723542Y9255150D01*
X1719935Y9241383D01*
X1718157Y9227312D01*
X1718157Y9213088D01*
X1719935Y9199016D01*
X1723542Y9185249D01*
X1728876Y9172092D01*
X1735886Y9159697D01*
X1744370Y9148318D01*
X1754225Y9138107D01*
X1765350Y9129268D01*
X1777492Y9121902D01*
X1784146Y9118955D01*
X1787347Y9116720D01*
X1789430Y9113469D01*
X1790192Y9109659D01*
X1790192Y8877808D01*
X1791004Y8869781D01*
X1793189Y8862568D01*
X1796745Y8855862D01*
X1801875Y8849664D01*
X2017064Y8634476D01*
X2023262Y8629345D01*
X2029968Y8625789D01*
X2037181Y8623604D01*
X2045207Y8622792D01*
X4196181Y8622792D01*
X4200093Y8622030D01*
X4203395Y8619794D01*
X4746294Y8076895D01*
X4748530Y8073593D01*
X4749292Y8069681D01*
X4749292Y5024018D01*
X4748530Y5020106D01*
X4746294Y5016804D01*
X4625848Y4896358D01*
X4622647Y4894173D01*
X4618786Y4893411D01*
X4614926Y4894122D01*
X4607458Y4897069D01*
X4593488Y4900676D01*
X4579213Y4902454D01*
X4564786Y4902454D01*
X4550511Y4900676D01*
X4536541Y4897069D01*
X4523130Y4891786D01*
X4510481Y4884826D01*
X4498848Y4876342D01*
X4488332Y4866487D01*
X4479137Y4855362D01*
X4471416Y4843221D01*
X4465269Y4830165D01*
X4460798Y4816449D01*
X4458106Y4802276D01*
X4457192Y4787900D01*
X4458106Y4773523D01*
X4460798Y4759350D01*
X4465269Y4745634D01*
X4471416Y4732578D01*
X4479137Y4720437D01*
X4488332Y4709312D01*
X4498848Y4699457D01*
X4510481Y4690973D01*
X4523130Y4684014D01*
X4536541Y4678730D01*
X4550511Y4675124D01*
G37*
G36*
X5348986Y9256318D02*
G01*
X5399430Y9256318D01*
X5399430Y9306814D01*
X5390845Y9302292D01*
X5379161Y9294164D01*
X5368645Y9284614D01*
X5359450Y9273794D01*
X5351678Y9261906D01*
G37*
G36*
X4564786Y4927346D02*
G01*
X4579213Y4927346D01*
X4593488Y4929124D01*
X4607458Y4932730D01*
X4620869Y4938014D01*
X4633518Y4944973D01*
X4645152Y4953457D01*
X4655667Y4963312D01*
X4664862Y4974437D01*
X4672584Y4986578D01*
X4678730Y4999634D01*
X4683201Y5013350D01*
X4685893Y5027523D01*
X4686808Y5041900D01*
X4685893Y5056276D01*
X4683201Y5070449D01*
X4678730Y5084165D01*
X4672584Y5097221D01*
X4664862Y5109362D01*
X4655667Y5120487D01*
X4645152Y5130342D01*
X4633518Y5138826D01*
X4620869Y5145786D01*
X4607458Y5151069D01*
X4593488Y5154676D01*
X4579213Y5156454D01*
X4564786Y5156454D01*
X4550511Y5154676D01*
X4536541Y5151069D01*
X4523130Y5145786D01*
X4510481Y5138826D01*
X4498848Y5130342D01*
X4488332Y5120487D01*
X4479137Y5109362D01*
X4471416Y5097221D01*
X4465269Y5084165D01*
X4460798Y5070449D01*
X4458106Y5056276D01*
X4457192Y5041900D01*
X4458106Y5027523D01*
X4460798Y5013350D01*
X4465269Y4999634D01*
X4471416Y4986578D01*
X4479137Y4974437D01*
X4488332Y4963312D01*
X4498848Y4953457D01*
X4510481Y4944973D01*
X4523130Y4938014D01*
X4536541Y4932730D01*
X4550511Y4929124D01*
G37*
G36*
X6342786Y4927346D02*
G01*
X6357213Y4927346D01*
X6371488Y4929124D01*
X6385458Y4932730D01*
X6398869Y4938014D01*
X6411518Y4944973D01*
X6423152Y4953457D01*
X6433667Y4963312D01*
X6442862Y4974437D01*
X6450584Y4986578D01*
X6456730Y4999634D01*
X6461201Y5013350D01*
X6463893Y5027523D01*
X6464808Y5041900D01*
X6463893Y5056276D01*
X6461201Y5070449D01*
X6456730Y5084165D01*
X6450584Y5097221D01*
X6442862Y5109362D01*
X6433667Y5120487D01*
X6423152Y5130342D01*
X6411518Y5138826D01*
X6398869Y5145786D01*
X6385458Y5151069D01*
X6371488Y5154676D01*
X6357213Y5156454D01*
X6342786Y5156454D01*
X6328511Y5154676D01*
X6314541Y5151069D01*
X6301130Y5145786D01*
X6288481Y5138826D01*
X6276848Y5130342D01*
X6266332Y5120487D01*
X6257137Y5109362D01*
X6249416Y5097221D01*
X6243269Y5084165D01*
X6238798Y5070449D01*
X6236106Y5056276D01*
X6235192Y5041900D01*
X6236106Y5027523D01*
X6238798Y5013350D01*
X6243269Y4999634D01*
X6249416Y4986578D01*
X6257137Y4974437D01*
X6266332Y4963312D01*
X6276848Y4953457D01*
X6288481Y4944973D01*
X6301130Y4938014D01*
X6314541Y4932730D01*
X6328511Y4929124D01*
G37*
G36*
X4564786Y5181346D02*
G01*
X4579213Y5181346D01*
X4593488Y5183124D01*
X4607458Y5186730D01*
X4620869Y5192014D01*
X4633518Y5198973D01*
X4645152Y5207457D01*
X4655667Y5217312D01*
X4664862Y5228437D01*
X4672584Y5240578D01*
X4678730Y5253634D01*
X4683201Y5267350D01*
X4685893Y5281523D01*
X4686808Y5295900D01*
X4685893Y5310276D01*
X4683201Y5324449D01*
X4678730Y5338165D01*
X4672584Y5351221D01*
X4664862Y5363362D01*
X4655667Y5374487D01*
X4645152Y5384342D01*
X4633518Y5392826D01*
X4620869Y5399786D01*
X4607458Y5405069D01*
X4593488Y5408676D01*
X4579213Y5410454D01*
X4564786Y5410454D01*
X4550511Y5408676D01*
X4536541Y5405069D01*
X4523130Y5399786D01*
X4510481Y5392826D01*
X4498848Y5384342D01*
X4488332Y5374487D01*
X4479137Y5363362D01*
X4471416Y5351221D01*
X4465269Y5338165D01*
X4460798Y5324449D01*
X4458106Y5310276D01*
X4457192Y5295900D01*
X4458106Y5281523D01*
X4460798Y5267350D01*
X4465269Y5253634D01*
X4471416Y5240578D01*
X4479137Y5228437D01*
X4488332Y5217312D01*
X4498848Y5207457D01*
X4510481Y5198973D01*
X4523130Y5192014D01*
X4536541Y5186730D01*
X4550511Y5183124D01*
G37*
G36*
X6342786Y5181346D02*
G01*
X6357213Y5181346D01*
X6371488Y5183124D01*
X6385458Y5186730D01*
X6398869Y5192014D01*
X6411518Y5198973D01*
X6423152Y5207457D01*
X6433667Y5217312D01*
X6442862Y5228437D01*
X6450584Y5240578D01*
X6456730Y5253634D01*
X6461201Y5267350D01*
X6463893Y5281523D01*
X6464808Y5295900D01*
X6463893Y5310276D01*
X6461201Y5324449D01*
X6456730Y5338165D01*
X6450584Y5351221D01*
X6442862Y5363362D01*
X6433667Y5374487D01*
X6423152Y5384342D01*
X6411518Y5392826D01*
X6398869Y5399786D01*
X6385458Y5405069D01*
X6371488Y5408676D01*
X6357213Y5410454D01*
X6342786Y5410454D01*
X6328511Y5408676D01*
X6314541Y5405069D01*
X6301130Y5399786D01*
X6288481Y5392826D01*
X6276848Y5384342D01*
X6266332Y5374487D01*
X6257137Y5363362D01*
X6249416Y5351221D01*
X6243269Y5338165D01*
X6238798Y5324449D01*
X6236106Y5310276D01*
X6235192Y5295900D01*
X6236106Y5281523D01*
X6238798Y5267350D01*
X6243269Y5253634D01*
X6249416Y5240578D01*
X6257137Y5228437D01*
X6266332Y5217312D01*
X6276848Y5207457D01*
X6288481Y5198973D01*
X6301130Y5192014D01*
X6314541Y5186730D01*
X6328511Y5183124D01*
G37*
G36*
X4564786Y5435346D02*
G01*
X4579213Y5435346D01*
X4593488Y5437124D01*
X4607458Y5440730D01*
X4620869Y5446014D01*
X4633518Y5452973D01*
X4645152Y5461457D01*
X4655667Y5471312D01*
X4664862Y5482437D01*
X4672584Y5494578D01*
X4678730Y5507634D01*
X4683201Y5521350D01*
X4685893Y5535523D01*
X4686808Y5549900D01*
X4685893Y5564276D01*
X4683201Y5578449D01*
X4678730Y5592165D01*
X4672584Y5605221D01*
X4664862Y5617362D01*
X4655667Y5628487D01*
X4645152Y5638342D01*
X4633518Y5646826D01*
X4620869Y5653786D01*
X4607458Y5659069D01*
X4593488Y5662676D01*
X4579213Y5664454D01*
X4564786Y5664454D01*
X4550511Y5662676D01*
X4536541Y5659069D01*
X4523130Y5653786D01*
X4510481Y5646826D01*
X4498848Y5638342D01*
X4488332Y5628487D01*
X4479137Y5617362D01*
X4471416Y5605221D01*
X4465269Y5592165D01*
X4460798Y5578449D01*
X4458106Y5564276D01*
X4457192Y5549900D01*
X4458106Y5535523D01*
X4460798Y5521350D01*
X4465269Y5507634D01*
X4471416Y5494578D01*
X4479137Y5482437D01*
X4488332Y5471312D01*
X4498848Y5461457D01*
X4510481Y5452973D01*
X4523130Y5446014D01*
X4536541Y5440730D01*
X4550511Y5437124D01*
G37*
G36*
X6342786Y5435346D02*
G01*
X6357213Y5435346D01*
X6371488Y5437124D01*
X6385458Y5440730D01*
X6398869Y5446014D01*
X6411518Y5452973D01*
X6423152Y5461457D01*
X6433667Y5471312D01*
X6442862Y5482437D01*
X6450584Y5494578D01*
X6456730Y5507634D01*
X6461201Y5521350D01*
X6463893Y5535523D01*
X6464808Y5549900D01*
X6463893Y5564276D01*
X6461201Y5578449D01*
X6456730Y5592165D01*
X6450584Y5605221D01*
X6442862Y5617362D01*
X6433667Y5628487D01*
X6423152Y5638342D01*
X6411518Y5646826D01*
X6398869Y5653786D01*
X6385458Y5659069D01*
X6371488Y5662676D01*
X6357213Y5664454D01*
X6342786Y5664454D01*
X6328511Y5662676D01*
X6314541Y5659069D01*
X6301130Y5653786D01*
X6288481Y5646826D01*
X6276848Y5638342D01*
X6266332Y5628487D01*
X6257137Y5617362D01*
X6249416Y5605221D01*
X6243269Y5592165D01*
X6238798Y5578449D01*
X6236106Y5564276D01*
X6235192Y5549900D01*
X6236106Y5535523D01*
X6238798Y5521350D01*
X6243269Y5507634D01*
X6249416Y5494578D01*
X6257137Y5482437D01*
X6266332Y5471312D01*
X6276848Y5461457D01*
X6288481Y5452973D01*
X6301130Y5446014D01*
X6314541Y5440730D01*
X6328511Y5437124D01*
G37*
G36*
X4564786Y5689346D02*
G01*
X4579213Y5689346D01*
X4593488Y5691124D01*
X4607458Y5694730D01*
X4620869Y5700014D01*
X4633518Y5706973D01*
X4645152Y5715457D01*
X4655667Y5725312D01*
X4664862Y5736437D01*
X4672584Y5748578D01*
X4678730Y5761634D01*
X4683201Y5775350D01*
X4685893Y5789523D01*
X4686808Y5803900D01*
X4685893Y5818276D01*
X4683201Y5832449D01*
X4678730Y5846165D01*
X4672584Y5859221D01*
X4664862Y5871362D01*
X4655667Y5882487D01*
X4645152Y5892342D01*
X4633518Y5900826D01*
X4620869Y5907786D01*
X4607458Y5913069D01*
X4593488Y5916676D01*
X4579213Y5918454D01*
X4564786Y5918454D01*
X4550511Y5916676D01*
X4536541Y5913069D01*
X4523130Y5907786D01*
X4510481Y5900826D01*
X4498848Y5892342D01*
X4488332Y5882487D01*
X4479137Y5871362D01*
X4471416Y5859221D01*
X4465269Y5846165D01*
X4460798Y5832449D01*
X4458106Y5818276D01*
X4457192Y5803900D01*
X4458106Y5789523D01*
X4460798Y5775350D01*
X4465269Y5761634D01*
X4471416Y5748578D01*
X4479137Y5736437D01*
X4488332Y5725312D01*
X4498848Y5715457D01*
X4510481Y5706973D01*
X4523130Y5700014D01*
X4536541Y5694730D01*
X4550511Y5691124D01*
G37*
G36*
X6342786Y5689346D02*
G01*
X6357213Y5689346D01*
X6371488Y5691124D01*
X6385458Y5694730D01*
X6398869Y5700014D01*
X6411518Y5706973D01*
X6423152Y5715457D01*
X6433667Y5725312D01*
X6442862Y5736437D01*
X6450584Y5748578D01*
X6456730Y5761634D01*
X6461201Y5775350D01*
X6463893Y5789523D01*
X6464808Y5803900D01*
X6463893Y5818276D01*
X6461201Y5832449D01*
X6456730Y5846165D01*
X6450584Y5859221D01*
X6442862Y5871362D01*
X6433667Y5882487D01*
X6423152Y5892342D01*
X6411518Y5900826D01*
X6398869Y5907786D01*
X6385458Y5913069D01*
X6371488Y5916676D01*
X6357213Y5918454D01*
X6342786Y5918454D01*
X6328511Y5916676D01*
X6314541Y5913069D01*
X6301130Y5907786D01*
X6288481Y5900826D01*
X6276848Y5892342D01*
X6266332Y5882487D01*
X6257137Y5871362D01*
X6249416Y5859221D01*
X6243269Y5846165D01*
X6238798Y5832449D01*
X6236106Y5818276D01*
X6235192Y5803900D01*
X6236106Y5789523D01*
X6238798Y5775350D01*
X6243269Y5761634D01*
X6249416Y5748578D01*
X6257137Y5736437D01*
X6266332Y5725312D01*
X6276848Y5715457D01*
X6288481Y5706973D01*
X6301130Y5700014D01*
X6314541Y5694730D01*
X6328511Y5691124D01*
G37*
G36*
X1231646Y2651455D02*
G01*
X1249680Y2652877D01*
X1267510Y2656128D01*
X1284884Y2661158D01*
X1301648Y2668016D01*
X1317650Y2676499D01*
X1332687Y2686608D01*
X1346555Y2698191D01*
X1359204Y2711196D01*
X1370482Y2725369D01*
X1380185Y2740660D01*
X1388262Y2756865D01*
X1394663Y2773832D01*
X1399286Y2791307D01*
X1402080Y2809189D01*
X1402994Y2827274D01*
X1402080Y2845409D01*
X1399286Y2863291D01*
X1394663Y2880766D01*
X1388262Y2897733D01*
X1380185Y2913938D01*
X1370482Y2929229D01*
X1359204Y2943402D01*
X1346555Y2956407D01*
X1332687Y2967990D01*
X1317650Y2978099D01*
X1301648Y2986582D01*
X1284884Y2993440D01*
X1267510Y2998470D01*
X1249680Y3001721D01*
X1231646Y3003143D01*
X1213510Y3002686D01*
X1195578Y3000349D01*
X1177950Y2996184D01*
X1160830Y2990240D01*
X1144422Y2982569D01*
X1128928Y2973222D01*
X1114399Y2962351D01*
X1101140Y2950057D01*
X1089152Y2936443D01*
X1078687Y2921711D01*
X1069746Y2905963D01*
X1062532Y2889351D01*
X1056995Y2872079D01*
X1053287Y2854350D01*
X1051458Y2836367D01*
X1051458Y2818231D01*
X1053287Y2800248D01*
X1056995Y2782519D01*
X1062532Y2765247D01*
X1069746Y2748635D01*
X1078687Y2732887D01*
X1089152Y2718155D01*
X1101140Y2704541D01*
X1114399Y2692247D01*
X1128928Y2681376D01*
X1144422Y2672029D01*
X1160830Y2664358D01*
X1177950Y2658414D01*
X1195578Y2654249D01*
X1213510Y2651912D01*
G37*
G36*
X3439769Y9158986D02*
G01*
X3448405Y9163507D01*
X3460038Y9171635D01*
X3470554Y9181185D01*
X3479749Y9192006D01*
X3487521Y9203893D01*
X3490214Y9209481D01*
X3439769Y9209481D01*
G37*
G36*
X3342030Y9158935D02*
G01*
X3342030Y9209481D01*
X3291433Y9209481D01*
X3297986Y9197797D01*
X3306470Y9186418D01*
X3316325Y9176207D01*
X3327450Y9167368D01*
X3339592Y9160002D01*
G37*
G36*
X6342786Y6197346D02*
G01*
X6357213Y6197346D01*
X6371488Y6199124D01*
X6385458Y6202730D01*
X6398869Y6208014D01*
X6411518Y6214973D01*
X6423152Y6223457D01*
X6433667Y6233312D01*
X6442862Y6244437D01*
X6450584Y6256578D01*
X6456730Y6269634D01*
X6461201Y6283350D01*
X6463893Y6297523D01*
X6464808Y6311900D01*
X6463893Y6326276D01*
X6461201Y6340449D01*
X6456730Y6354165D01*
X6450584Y6367221D01*
X6442862Y6379362D01*
X6433667Y6390487D01*
X6423152Y6400342D01*
X6411518Y6408826D01*
X6398869Y6415786D01*
X6385458Y6421069D01*
X6371488Y6424676D01*
X6357213Y6426454D01*
X6342786Y6426454D01*
X6328511Y6424676D01*
X6314541Y6421069D01*
X6301130Y6415786D01*
X6288481Y6408826D01*
X6276848Y6400342D01*
X6266332Y6390487D01*
X6257137Y6379362D01*
X6249416Y6367221D01*
X6243269Y6354165D01*
X6238798Y6340449D01*
X6236106Y6326276D01*
X6235192Y6311900D01*
X6236106Y6297523D01*
X6238798Y6283350D01*
X6243269Y6269634D01*
X6249416Y6256578D01*
X6257137Y6244437D01*
X6266332Y6233312D01*
X6276848Y6223457D01*
X6288481Y6214973D01*
X6301130Y6208014D01*
X6314541Y6202730D01*
X6328511Y6199124D01*
G37*
G36*
X4564786Y6197346D02*
G01*
X4579213Y6197346D01*
X4593488Y6199124D01*
X4607458Y6202730D01*
X4620869Y6208014D01*
X4633518Y6214973D01*
X4645152Y6223457D01*
X4655667Y6233312D01*
X4664862Y6244437D01*
X4672584Y6256578D01*
X4678730Y6269634D01*
X4683201Y6283350D01*
X4685893Y6297523D01*
X4686808Y6311900D01*
X4685893Y6326276D01*
X4683201Y6340449D01*
X4678730Y6354165D01*
X4672584Y6367221D01*
X4664862Y6379362D01*
X4655667Y6390487D01*
X4645152Y6400342D01*
X4633518Y6408826D01*
X4620869Y6415786D01*
X4607458Y6421069D01*
X4593488Y6424676D01*
X4579213Y6426454D01*
X4564786Y6426454D01*
X4550511Y6424676D01*
X4536541Y6421069D01*
X4523130Y6415786D01*
X4510481Y6408826D01*
X4498848Y6400342D01*
X4488332Y6390487D01*
X4479137Y6379362D01*
X4471416Y6367221D01*
X4465269Y6354165D01*
X4460798Y6340449D01*
X4458106Y6326276D01*
X4457192Y6311900D01*
X4458106Y6297523D01*
X4460798Y6283350D01*
X4465269Y6269634D01*
X4471416Y6256578D01*
X4479137Y6244437D01*
X4488332Y6233312D01*
X4498848Y6223457D01*
X4510481Y6214973D01*
X4523130Y6208014D01*
X4536541Y6202730D01*
X4550511Y6199124D01*
G37*
G36*
X6342786Y6451346D02*
G01*
X6357213Y6451346D01*
X6371488Y6453124D01*
X6385458Y6456730D01*
X6398869Y6462014D01*
X6411518Y6468973D01*
X6423152Y6477457D01*
X6433667Y6487312D01*
X6442862Y6498437D01*
X6450584Y6510578D01*
X6456730Y6523634D01*
X6461201Y6537350D01*
X6463893Y6551523D01*
X6464808Y6565900D01*
X6463893Y6580276D01*
X6461201Y6594449D01*
X6456730Y6608165D01*
X6450584Y6621221D01*
X6442862Y6633362D01*
X6433667Y6644487D01*
X6423152Y6654342D01*
X6411518Y6662826D01*
X6398869Y6669786D01*
X6385458Y6675069D01*
X6371488Y6678675D01*
X6357213Y6680453D01*
X6342786Y6680453D01*
X6328511Y6678675D01*
X6314541Y6675069D01*
X6301130Y6669786D01*
X6288481Y6662826D01*
X6276848Y6654342D01*
X6266332Y6644487D01*
X6257137Y6633362D01*
X6249416Y6621221D01*
X6243269Y6608165D01*
X6238798Y6594449D01*
X6236106Y6580276D01*
X6235192Y6565900D01*
X6236106Y6551523D01*
X6238798Y6537350D01*
X6243269Y6523634D01*
X6249416Y6510578D01*
X6257137Y6498437D01*
X6266332Y6487312D01*
X6276848Y6477457D01*
X6288481Y6468973D01*
X6301130Y6462014D01*
X6314541Y6456730D01*
X6328511Y6453124D01*
G37*
G36*
X4521200Y6463080D02*
G01*
X4521200Y6515100D01*
X4469282Y6515100D01*
X4471416Y6510578D01*
X4479137Y6498437D01*
X4488332Y6487312D01*
X4498848Y6477457D01*
X4510481Y6468973D01*
G37*
G36*
X4622800Y6463080D02*
G01*
X4633518Y6468973D01*
X4645152Y6477457D01*
X4655667Y6487312D01*
X4664862Y6498437D01*
X4672584Y6510578D01*
X4674717Y6515100D01*
X4622800Y6515100D01*
G37*
G36*
X4622800Y6616700D02*
G01*
X4674717Y6616700D01*
X4672584Y6621221D01*
X4664862Y6633362D01*
X4655667Y6644487D01*
X4645152Y6654342D01*
X4633518Y6662826D01*
X4622800Y6668719D01*
G37*
G36*
X4469282Y6616700D02*
G01*
X4521200Y6616700D01*
X4521200Y6668719D01*
X4510481Y6662826D01*
X4498848Y6654342D01*
X4488332Y6644487D01*
X4479137Y6633362D01*
X4471416Y6621221D01*
G37*
G36*
X6342786Y6705346D02*
G01*
X6357213Y6705346D01*
X6371488Y6707124D01*
X6385458Y6710730D01*
X6398869Y6716014D01*
X6411518Y6722973D01*
X6423152Y6731457D01*
X6433667Y6741312D01*
X6442862Y6752437D01*
X6450584Y6764578D01*
X6456730Y6777634D01*
X6461201Y6791350D01*
X6463893Y6805523D01*
X6464808Y6819900D01*
X6463893Y6834276D01*
X6461201Y6848449D01*
X6456730Y6862165D01*
X6450584Y6875221D01*
X6442862Y6887362D01*
X6433667Y6898487D01*
X6423152Y6908342D01*
X6411518Y6916826D01*
X6398869Y6923786D01*
X6385458Y6929069D01*
X6371488Y6932675D01*
X6357213Y6934453D01*
X6342786Y6934453D01*
X6328511Y6932675D01*
X6314541Y6929069D01*
X6301130Y6923786D01*
X6288481Y6916826D01*
X6276848Y6908342D01*
X6266332Y6898487D01*
X6257137Y6887362D01*
X6249416Y6875221D01*
X6243269Y6862165D01*
X6238798Y6848449D01*
X6236106Y6834276D01*
X6235192Y6819900D01*
X6236106Y6805523D01*
X6238798Y6791350D01*
X6243269Y6777634D01*
X6249416Y6764578D01*
X6257137Y6752437D01*
X6266332Y6741312D01*
X6276848Y6731457D01*
X6288481Y6722973D01*
X6301130Y6716014D01*
X6314541Y6710730D01*
X6328511Y6707124D01*
G37*
G36*
X4564786Y6705346D02*
G01*
X4579213Y6705346D01*
X4593488Y6707124D01*
X4607458Y6710730D01*
X4620869Y6716014D01*
X4633518Y6722973D01*
X4645152Y6731457D01*
X4655667Y6741312D01*
X4664862Y6752437D01*
X4672584Y6764578D01*
X4678730Y6777634D01*
X4683201Y6791350D01*
X4685893Y6805523D01*
X4686808Y6819900D01*
X4685893Y6834276D01*
X4683201Y6848449D01*
X4678730Y6862165D01*
X4672584Y6875221D01*
X4664862Y6887362D01*
X4655667Y6898487D01*
X4645152Y6908342D01*
X4633518Y6916826D01*
X4620869Y6923786D01*
X4607458Y6929069D01*
X4593488Y6932675D01*
X4579213Y6934453D01*
X4564786Y6934453D01*
X4550511Y6932675D01*
X4536541Y6929069D01*
X4523130Y6923786D01*
X4510481Y6916826D01*
X4498848Y6908342D01*
X4488332Y6898487D01*
X4479137Y6887362D01*
X4471416Y6875221D01*
X4465269Y6862165D01*
X4460798Y6848449D01*
X4458106Y6834276D01*
X4457192Y6819900D01*
X4458106Y6805523D01*
X4460798Y6791350D01*
X4465269Y6777634D01*
X4471416Y6764578D01*
X4479137Y6752437D01*
X4488332Y6741312D01*
X4498848Y6731457D01*
X4510481Y6722973D01*
X4523130Y6716014D01*
X4536541Y6710730D01*
X4550511Y6707124D01*
G37*
G36*
X1231646Y7851444D02*
G01*
X1249680Y7852867D01*
X1267510Y7856118D01*
X1284884Y7861147D01*
X1301648Y7868005D01*
X1317650Y7876489D01*
X1332687Y7886598D01*
X1346555Y7898180D01*
X1359204Y7911185D01*
X1370482Y7925358D01*
X1380185Y7940649D01*
X1388262Y7956854D01*
X1394663Y7973822D01*
X1399286Y7991297D01*
X1402080Y8009178D01*
X1402994Y8027263D01*
X1402080Y8045399D01*
X1399286Y8063280D01*
X1394663Y8080756D01*
X1388262Y8097723D01*
X1380185Y8113928D01*
X1370482Y8129219D01*
X1359204Y8143392D01*
X1346555Y8156397D01*
X1332687Y8167979D01*
X1317650Y8178088D01*
X1301648Y8186572D01*
X1284884Y8193430D01*
X1267510Y8198459D01*
X1249680Y8201710D01*
X1231646Y8203133D01*
X1213510Y8202675D01*
X1195578Y8200339D01*
X1177950Y8196173D01*
X1160830Y8190230D01*
X1144422Y8182559D01*
X1128928Y8173212D01*
X1114399Y8162340D01*
X1101140Y8150047D01*
X1089152Y8136432D01*
X1078687Y8121700D01*
X1069746Y8105952D01*
X1062532Y8089341D01*
X1056995Y8072069D01*
X1053287Y8054340D01*
X1051458Y8036356D01*
X1051458Y8018221D01*
X1053287Y8000238D01*
X1056995Y7982508D01*
X1062532Y7965236D01*
X1069746Y7948625D01*
X1078687Y7932877D01*
X1089152Y7918145D01*
X1101140Y7904530D01*
X1114399Y7892237D01*
X1128928Y7881366D01*
X1144422Y7872018D01*
X1160830Y7864348D01*
X1177950Y7858404D01*
X1195578Y7854238D01*
X1213510Y7851902D01*
G37*
G36*
X3831640Y7851444D02*
G01*
X3849674Y7852867D01*
X3867505Y7856118D01*
X3884879Y7861147D01*
X3901643Y7868005D01*
X3917645Y7876489D01*
X3932682Y7886598D01*
X3946550Y7898180D01*
X3959199Y7911185D01*
X3970477Y7925358D01*
X3980179Y7940649D01*
X3988257Y7956854D01*
X3994658Y7973822D01*
X3999280Y7991297D01*
X4002074Y8009178D01*
X4002989Y8027263D01*
X4002074Y8045399D01*
X3999280Y8063280D01*
X3994658Y8080756D01*
X3988257Y8097723D01*
X3980179Y8113928D01*
X3970477Y8129219D01*
X3959199Y8143392D01*
X3946550Y8156397D01*
X3932682Y8167979D01*
X3917645Y8178088D01*
X3901643Y8186572D01*
X3884879Y8193430D01*
X3867505Y8198459D01*
X3849674Y8201710D01*
X3831640Y8203133D01*
X3813505Y8202675D01*
X3795572Y8200339D01*
X3777945Y8196173D01*
X3760825Y8190230D01*
X3744417Y8182559D01*
X3728923Y8173212D01*
X3714394Y8162340D01*
X3701135Y8150047D01*
X3689146Y8136432D01*
X3678682Y8121700D01*
X3669741Y8105952D01*
X3662527Y8089341D01*
X3656990Y8072069D01*
X3653282Y8054340D01*
X3651453Y8036356D01*
X3651453Y8018221D01*
X3653282Y8000238D01*
X3656990Y7982508D01*
X3662527Y7965236D01*
X3669741Y7948625D01*
X3678682Y7932877D01*
X3689146Y7918145D01*
X3701135Y7904530D01*
X3714394Y7892237D01*
X3728923Y7881366D01*
X3744417Y7872018D01*
X3760825Y7864348D01*
X3777945Y7858404D01*
X3795572Y7854238D01*
X3813505Y7851902D01*
G37*
G36*
X5190744Y9096654D02*
G01*
X5204968Y9097111D01*
X5218988Y9099397D01*
X5232603Y9103410D01*
X5245608Y9109202D01*
X5257749Y9116568D01*
X5268874Y9125407D01*
X5278729Y9135618D01*
X5287264Y9146997D01*
X5294223Y9159392D01*
X5299557Y9172549D01*
X5303164Y9186316D01*
X5304993Y9200388D01*
X5304993Y9214612D01*
X5303164Y9228683D01*
X5299557Y9242450D01*
X5294223Y9255607D01*
X5287264Y9268002D01*
X5278729Y9279382D01*
X5268874Y9289592D01*
X5257749Y9298432D01*
X5245608Y9305798D01*
X5238953Y9308744D01*
X5235752Y9310979D01*
X5233670Y9314230D01*
X5232908Y9318040D01*
X5232908Y9397492D01*
X5232095Y9405518D01*
X5229910Y9412732D01*
X5226354Y9419437D01*
X5221224Y9425635D01*
X4853635Y9793224D01*
X4847437Y9798354D01*
X4840732Y9801910D01*
X4833518Y9804095D01*
X4825492Y9804908D01*
X3518408Y9804908D01*
X3510381Y9804095D01*
X3503168Y9801910D01*
X3496462Y9798354D01*
X3490518Y9793478D01*
X3486810Y9789160D01*
X3172358Y9369907D01*
X3169462Y9367316D01*
X3165805Y9365945D01*
X3161944Y9366097D01*
X3154578Y9367774D01*
X3140456Y9369145D01*
X3126232Y9368688D01*
X3112211Y9366402D01*
X3098596Y9362389D01*
X3085592Y9356598D01*
X3073450Y9349232D01*
X3062325Y9340392D01*
X3052470Y9330182D01*
X3043986Y9318802D01*
X3036976Y9306407D01*
X3035706Y9303258D01*
X3033522Y9299905D01*
X3030220Y9297670D01*
X3026308Y9296908D01*
X2788818Y9296908D01*
X2784906Y9297670D01*
X2781604Y9299905D01*
X2427935Y9653524D01*
X2421737Y9658654D01*
X2415032Y9662210D01*
X2407818Y9664395D01*
X2399792Y9665208D01*
X1727707Y9665208D01*
X1719681Y9664395D01*
X1712468Y9662210D01*
X1705762Y9658654D01*
X1699564Y9653524D01*
X1371701Y9325660D01*
X1368501Y9323527D01*
X1364792Y9322714D01*
X1360982Y9323324D01*
X1352346Y9326524D01*
X1338478Y9329674D01*
X1324356Y9331045D01*
X1310132Y9330588D01*
X1296111Y9328302D01*
X1282496Y9324289D01*
X1269492Y9318498D01*
X1257350Y9311132D01*
X1246225Y9302292D01*
X1236370Y9292082D01*
X1227886Y9280702D01*
X1220876Y9268307D01*
X1215542Y9255150D01*
X1211935Y9241383D01*
X1210157Y9227312D01*
X1210157Y9213088D01*
X1211935Y9199016D01*
X1215542Y9185249D01*
X1220876Y9172092D01*
X1227886Y9159697D01*
X1236370Y9148318D01*
X1246225Y9138107D01*
X1257350Y9129268D01*
X1269492Y9121902D01*
X1282496Y9116161D01*
X1296111Y9112097D01*
X1310132Y9109811D01*
X1324356Y9109405D01*
X1338478Y9110726D01*
X1352346Y9113926D01*
X1365707Y9118803D01*
X1378305Y9125407D01*
X1389938Y9133535D01*
X1400454Y9143085D01*
X1409649Y9153906D01*
X1417421Y9165793D01*
X1423568Y9178594D01*
X1428038Y9192107D01*
X1430782Y9206026D01*
X1431696Y9220200D01*
X1430782Y9234373D01*
X1428038Y9248343D01*
X1423924Y9260789D01*
X1423416Y9264497D01*
X1424279Y9268104D01*
X1426362Y9271203D01*
X1740204Y9584994D01*
X1743506Y9587230D01*
X1747418Y9587992D01*
X2380081Y9587992D01*
X2383993Y9587230D01*
X2387295Y9584994D01*
X2740964Y9231376D01*
X2747162Y9226245D01*
X2753868Y9222689D01*
X2761081Y9220504D01*
X2769108Y9219692D01*
X3026308Y9219692D01*
X3030220Y9218930D01*
X3033522Y9216694D01*
X3035706Y9213342D01*
X3036976Y9210192D01*
X3043986Y9197797D01*
X3052470Y9186418D01*
X3062325Y9176207D01*
X3073450Y9167368D01*
X3085592Y9160002D01*
X3098596Y9154261D01*
X3112211Y9150197D01*
X3126232Y9147911D01*
X3140456Y9147505D01*
X3154578Y9148826D01*
X3168446Y9152026D01*
X3181807Y9156903D01*
X3194405Y9163507D01*
X3206038Y9171635D01*
X3216554Y9181185D01*
X3225749Y9192006D01*
X3233521Y9203893D01*
X3239668Y9216694D01*
X3244138Y9230207D01*
X3246882Y9244126D01*
X3247796Y9258300D01*
X3246882Y9272473D01*
X3244138Y9286443D01*
X3239668Y9299905D01*
X3233267Y9313265D01*
X3232302Y9316821D01*
X3232658Y9320479D01*
X3234283Y9323781D01*
X3534156Y9723628D01*
X3536391Y9725812D01*
X3539185Y9727234D01*
X3542284Y9727692D01*
X4805781Y9727692D01*
X4809693Y9726930D01*
X4812995Y9724694D01*
X5152694Y9384995D01*
X5154930Y9381693D01*
X5155692Y9377781D01*
X5155692Y9318294D01*
X5155031Y9314688D01*
X5153101Y9311538D01*
X5150205Y9309252D01*
X5136794Y9302292D01*
X5125161Y9294164D01*
X5114645Y9284614D01*
X5105450Y9273794D01*
X5097678Y9261906D01*
X5091531Y9249105D01*
X5087061Y9235592D01*
X5084318Y9221673D01*
X5083403Y9207500D01*
X5084318Y9193326D01*
X5087061Y9179356D01*
X5091531Y9165894D01*
X5097678Y9153093D01*
X5105450Y9141155D01*
X5114645Y9130334D01*
X5125161Y9120784D01*
X5136845Y9112656D01*
X5149443Y9106103D01*
X5162753Y9101175D01*
X5176621Y9098026D01*
G37*
G36*
X5497169Y9108084D02*
G01*
X5499608Y9109202D01*
X5511749Y9116568D01*
X5522874Y9125407D01*
X5532729Y9135618D01*
X5541213Y9146997D01*
X5547817Y9158630D01*
X5497169Y9158630D01*
G37*
G36*
X5399430Y9108186D02*
G01*
X5399430Y9158630D01*
X5348986Y9158630D01*
X5351678Y9153093D01*
X5359450Y9141155D01*
X5368645Y9130334D01*
X5379161Y9120784D01*
X5390845Y9112656D01*
G37*
G36*
X1623669Y9120886D02*
G01*
X1632305Y9125407D01*
X1643938Y9133535D01*
X1654454Y9143085D01*
X1663649Y9153906D01*
X1671421Y9165793D01*
X1674114Y9171381D01*
X1623669Y9171381D01*
G37*
G36*
X1525930Y9120835D02*
G01*
X1525930Y9171381D01*
X1475333Y9171381D01*
X1481886Y9159697D01*
X1490370Y9148318D01*
X1500225Y9138107D01*
X1511350Y9129268D01*
X1523492Y9121902D01*
G37*

%LPD*%
D10*
X3136900Y9258300D02*
G01*
X2768600Y9258300D01*
X2400300Y9626600D01*
X1727200Y9626600D01*
X1320800Y9220200D01*
X5194300Y9207500D02*
G01*
X5194300Y9398000D01*
X4826000Y9766300D01*
X3517900Y9766300D01*
X3136900Y9258300D01*
X5956300Y9207500D02*
G01*
X5956300Y4673600D01*
X6350000Y4279900D01*
X5702300Y9207500D02*
G01*
X5702300Y4673600D01*
X6350000Y4025900D01*
X3977131Y6923278D02*
G01*
X4216400Y6684010D01*
X4216400Y6413500D01*
X4572000Y6057900D01*
X3898900Y9258300D02*
G01*
X4127500Y9258300D01*
X5257800Y8128000D01*
X5257800Y4711700D01*
X4572000Y4025900D01*
X3644900Y9258300D02*
G01*
X3644900Y9067800D01*
X3797300Y8915400D01*
X4279900Y8915400D01*
X5092700Y8102600D01*
X5092700Y4800600D01*
X4572000Y4279900D01*
X2082800Y9220200D02*
G01*
X2082800Y8940800D01*
X2235200Y8788400D01*
X4229100Y8788400D01*
X4953000Y8064500D01*
X4953000Y4914900D01*
X4572000Y4533900D01*
X1828800Y9220200D02*
G01*
X1828800Y8877300D01*
X2044700Y8661400D01*
X4216400Y8661400D01*
X4787900Y8089900D01*
X4787900Y5003800D01*
X4572000Y4787900D01*
D11*
G01*
X1828800Y9220200D03*
G01*
X1574800Y9220200D03*
G01*
X1320800Y9220200D03*
G01*
X2082800Y9220200D03*
G01*
X3644900Y9258300D03*
G01*
X3390900Y9258300D03*
G01*
X3136900Y9258300D03*
G01*
X3898900Y9258300D03*
G01*
X5448300Y9207500D03*
G01*
X5702300Y9207500D03*
G01*
X5956300Y9207500D03*
G01*
X5194300Y9207500D03*
D12*
G01*
X1077112Y7177278D03*
G01*
X1077112Y6923278D03*
G01*
X1077112Y6669278D03*
G01*
X1077112Y6415303D03*
G01*
X1077112Y6161303D03*
G01*
X1077112Y5907303D03*
G01*
X1077112Y5653303D03*
G01*
X1077112Y5399303D03*
G01*
X1077112Y5145303D03*
G01*
X1079500Y4891303D03*
G01*
X1079500Y4637303D03*
G01*
X1079500Y4383303D03*
G01*
X1079500Y4129303D03*
G01*
X1079500Y3875303D03*
G01*
X1079500Y3621303D03*
G01*
X3977081Y7177278D03*
G01*
X3977081Y6923278D03*
G01*
X3977081Y6669278D03*
G01*
X3977081Y6415303D03*
G01*
X3977081Y6161303D03*
G01*
X3977081Y5907303D03*
G01*
X3977081Y5653303D03*
G01*
X3977081Y5399303D03*
G01*
X3977081Y5145303D03*
G01*
X3977081Y4891303D03*
G01*
X3977081Y4637303D03*
G01*
X3977081Y4383303D03*
G01*
X3977081Y4129303D03*
G01*
X3977081Y3875303D03*
G01*
X3977081Y3621303D03*
D13*
G01*
X4572000Y6819900D03*
G01*
X4572000Y6565900D03*
G01*
X4572000Y6311900D03*
G01*
X4572000Y6057900D03*
G01*
X4572000Y5803900D03*
G01*
X4572000Y5549900D03*
G01*
X4572000Y5295900D03*
G01*
X4572000Y5041900D03*
G01*
X4572000Y4787900D03*
G01*
X4572000Y4533900D03*
G01*
X4572000Y4279900D03*
G01*
X4572000Y4025900D03*
G01*
X6350000Y6819900D03*
G01*
X6350000Y6565900D03*
G01*
X6350000Y6311900D03*
G01*
X6350000Y6057900D03*
G01*
X6350000Y5803900D03*
G01*
X6350000Y5549900D03*
G01*
X6350000Y5295900D03*
G01*
X6350000Y5041900D03*
G01*
X6350000Y4787900D03*
G01*
X6350000Y4533900D03*
G01*
X6350000Y4279900D03*
G01*
X6350000Y4025900D03*
M02*
