G04 Layer: TopSolderMaskLayer*
G04 EasyEDA v6.5.5, 2023-03-20 10:36:03*
G04 9b540237bf8445d7845913a8156beade,10*
G04 Gerber Generator version 0.2*
G04 Scale: 100 percent, Rotated: No, Reflected: No *
G04 Dimensions in millimeters *
G04 leading zeros omitted , absolute positions ,4 integer and 5 decimal *
%FSLAX45Y45*%
%MOMM*%

%ADD17C,1.9032*%
%ADD18C,2.0320*%
%ADD19C,1.9812*%

%LPD*%
D17*
G01*
X1828800Y9220200D03*
G01*
X1574800Y9220200D03*
G01*
X1320800Y9220200D03*
G01*
X2082800Y9220200D03*
G01*
X3644900Y9258300D03*
G01*
X3390900Y9258300D03*
G01*
X3136900Y9258300D03*
G01*
X3898900Y9258300D03*
G01*
X5448300Y9207500D03*
G01*
X5702300Y9207500D03*
G01*
X5956300Y9207500D03*
G01*
X5194300Y9207500D03*
D18*
G01*
X1077112Y7177278D03*
G01*
X1077112Y6923278D03*
G01*
X1077112Y6669278D03*
G01*
X1077112Y6415303D03*
G01*
X1077112Y6161303D03*
G01*
X1077112Y5907303D03*
G01*
X1077112Y5653303D03*
G01*
X1077112Y5399303D03*
G01*
X1077112Y5145303D03*
G01*
X1079500Y4891303D03*
G01*
X1079500Y4637303D03*
G01*
X1079500Y4383303D03*
G01*
X1079500Y4129303D03*
G01*
X1079500Y3875303D03*
G01*
X1079500Y3621303D03*
G01*
X3977081Y7177278D03*
G01*
X3977081Y6923278D03*
G01*
X3977081Y6669278D03*
G01*
X3977081Y6415303D03*
G01*
X3977081Y6161303D03*
G01*
X3977081Y5907303D03*
G01*
X3977081Y5653303D03*
G01*
X3977081Y5399303D03*
G01*
X3977081Y5145303D03*
G01*
X3977081Y4891303D03*
G01*
X3977081Y4637303D03*
G01*
X3977081Y4383303D03*
G01*
X3977081Y4129303D03*
G01*
X3977081Y3875303D03*
G01*
X3977081Y3621303D03*
D19*
G01*
X4572000Y6819900D03*
G01*
X4572000Y6565900D03*
G01*
X4572000Y6311900D03*
G01*
X4572000Y6057900D03*
G01*
X4572000Y5803900D03*
G01*
X4572000Y5549900D03*
G01*
X4572000Y5295900D03*
G01*
X4572000Y5041900D03*
G01*
X4572000Y4787900D03*
G01*
X4572000Y4533900D03*
G01*
X4572000Y4279900D03*
G01*
X4572000Y4025900D03*
G01*
X6350000Y6819900D03*
G01*
X6350000Y6565900D03*
G01*
X6350000Y6311900D03*
G01*
X6350000Y6057900D03*
G01*
X6350000Y5803900D03*
G01*
X6350000Y5549900D03*
G01*
X6350000Y5295900D03*
G01*
X6350000Y5041900D03*
G01*
X6350000Y4787900D03*
G01*
X6350000Y4533900D03*
G01*
X6350000Y4279900D03*
G01*
X6350000Y4025900D03*
M02*
